<svg xmlns="http://www.w3.org/2000/svg" id="NXReportSuccess" width="110" height="110" fill="#32c682" viewBox="0 0 120 120"><style>@keyframes NXReportSuccess1-animation{0%{transform:matrix(.5,0,0,.5,30,28.85)}50%,to{transform:matrix(1,0,0,1,0,0)}60%{transform:matrix(.95,0,0,.95,3,2.885)}}@keyframes NXReportSuccess4-animation{0%{opacity:0}50%,to{opacity:1}}@keyframes NXReportSuccess3-animation{0%{opacity:0}40%,to{opacity:1}}@keyframes NXReportSuccess2-animation{0%{transform:matrix(.5,0,0,.5,30,30)}40%,to{transform:matrix(1,0,0,1,0,0)}60%{transform:matrix(.95,0,0,.95,3,3)}}#NXReportSuccess *{animation-duration:1.2s;animation-timing-function:cubic-bezier(0,0,1,1)}</style><g style="animation-name:NXReportSuccess2-animation;animation-timing-function:ease-in-out;-webkit-transform:matrix(1,0,0,1,0,0)"><path d="M60 115.38C29.46 115.38 4.62 90.54 4.62 60 4.62 29.46 29.46 4.62 60 4.62c30.54 0 55.38 24.84 55.38 55.38 0 30.54-24.84 55.38-55.38 55.38zM60 0C26.92 0 0 26.92 0 60s26.92 60 60 60 60-26.92 60-60S93.08 0 60 0z" style="animation-name:NXReportSuccess3-animation;animation-timing-function:ease-in-out" fill="inherit" data-animator-group="true" data-animator-type="2"/></g><g style="animation-name:NXReportSuccess1-animation;animation-timing-function:ease-in-out;-webkit-transform:matrix(1,0,0,1,0,0)"><path d="M88.27 35.39 52.8 75.29 31.43 58.2c-.98-.81-2.44-.63-3.24.36-.79.99-.63 2.44.36 3.24l23.08 18.46c.43.34.93.51 1.44.51.64 0 1.27-.26 1.74-.78l36.91-41.53a2.3 2.3 0 0 0-.19-3.26c-.95-.86-2.41-.77-3.26.19z" style="animation-name:NXReportSuccess4-animation;animation-timing-function:ease-in-out" fill="inherit" data-animator-group="true" data-animator-type="2"/></g></svg>