<svg version="1.0" xmlns="http://www.w3.org/2000/svg" width="170.667" height="170.667" viewBox="0 0 128 128"><path d="M53.9 1c-3 .5-8.5 2-12.2 3.4C23.3 11.3 10 25.3 3.4 44.5 1.1 51.4.7 54.1.7 64s.4 12.6 2.7 19.5c15.7 45.9 71.8 59.4 105.7 25.6C142.7 75.4 129.3 18.8 84 3.6 75.5.8 62.5-.3 53.9 1zm49.6 26.7c-1.1 6.1-4.4 15.3-8.5 23.8-5.8 12-5.4 11.7-12.5 9.5l-6-1.9 4.4 3.8c5.2 4.5 5 5.3-3.5 12.9C68.6 83.7 54.3 90 45.2 90c-2.6 0-4.5 1.1-8.5 4.9-4.8 4.5-5.4 4.8-7.2 3.5-1.8-1.4-1.7-1.6 3.2-6.7 4.6-4.7 5.1-5.7 5.7-11.1.4-3.2 1.8-8.9 3.3-12.5 2.6-6.5 8.1-15.7 8.9-14.8.3.2 2 2.6 3.9 5.3 4.2 5.9 4.3 5.3 1-9.3-.4-1.7.6-3.1 5.2-6.5 3.2-2.4 8-5.7 10.6-7.2 4.7-2.7 4.9-2.7 6.2-.9 4.4 6.1 4.4 6.1 3.5 1.8-.5-2.2-1-4.3-1-4.6 0-1.3 18.2-7.7 22.4-7.8 1.6-.1 1.7.4 1.1 3.6z" fill="#0AC916" stroke="#0AC916" stroke-width=".1"/></svg>