<svg version="1.1" id="Слой_1" xmlns="http://www.w3.org/2000/svg" x="0" y="0" viewBox="0 0 274.13 160.74" style="enable-background:new 0 0 274.13 160.74" xml:space="preserve"><path style="fill-rule:red;clip-rule:red;fill:rgba(0,0,0,0)" d="M1 1h272.13v158.74H1z"/><path d="m91.83 125.72.19.14c.83.64 1.68 1.25 2.55 1.84 2.88-4.72 9.54-20.81 11.19-24.73 2-4.74 4.09-9.48 6.67-13.94 1-1.73 2.08-3.41 3.25-5.03.01-.01.02-.03.03-.05 21.09-33.69 47.74-41.57 50.74-42.36-35.86 8.24-59.68 49.33-62.61 54.62-.2.37-.31.56-.31.56-4.88-9.03-3.33-19.68 3.02-28.74.49 1.22 1.1 2.42 1.82 3.58.26.42.54.84.84 1.25l.15.21c-.01-.02-.04-.07-.07-.14-1.69-3.23-1.18-7.18 1.23-9.92.12-.13.23-.26.35-.39.1 1.61.33 3.28.74 4.95.51 2.09 1.3 4.18 2.45 6.19-.03-.08-.18-.44-.37-1.05-.55-1.8-.79-3.65-.73-5.48.14-4.71 2.25-9.27 5.95-12.45 3.88-3.35 8.22-6.59 12.83-9.69l-.22 4.84-.24 5.4c.48-2.41 1.29-4.72 2.39-6.87 2.35-4.61 6.02-8.49 10.62-11.08.19-.11.38-.21.58-.33 3.56-1.99 7.22-3.62 10.9-4.95-1.27 1.62-2.41 3.44-3.29 5.47-.28.64-.53 1.31-.76 2 0 0 .29-.63.93-1.61.15-.23.3-.45.46-.67 2.86-4.02 7.15-6.8 11.97-7.93 23.56-5.49 45.43-.43 45.77-.35h-.02c-.34-.01-4.71.17-9.45 1.64-1.48.45-2.99 1.03-4.42 1.77-6.59 3.39-9.11 4.58-15.89 4.26 6.37 2.46 9.87 1.62 9.98 1.59-.81.52-1.57 1.02-2.3 1.53-.68.47-1.32.93-1.94 1.39-6.79 5.06-10.71 10.04-17.22 17.1-3.31 3.59-11.48 8.79-18.51 9.19l6.61.29-.05.07c-.82 1.02-1.73 1.95-2.73 2.78-.11.09-.22.18-.33.28a19.556 19.556 0 0 1-10.04 4.14l-4 .44 10.8.47c-.44.58-.87 1.15-1.29 1.71-.37.49-.73.97-1.09 1.44-.4.53-.8 1.06-1.18 1.58-4.95 6.58-13.1 10-21.24 8.75-1.86-.29-2.97-.69-2.97-.69 5.47 2.78 11.36 2.95 16.13 2.32-.23.27-.45.53-.67.77-1.04 1.17-1.98 2.14-2.83 2.85-.3.25-.59.48-.87.66-6.45 4.4-13.2 5.48-18.46 5.42-3.74-.04-7.15 2.14-8.73 5.53-2.4 5.17-6.91 15.36-9.19 24.1.93.52 1.87 1.01 2.82 1.47a57.12 57.12 0 0 0 25 5.73c31.62 0 57.25-25.63 57.25-57.25 0-9.07-2.12-17.97-6.26-26.05a.335.335 0 0 1 .05-.37c.03-.03.06-.07.09-.1.07-.08.18-.12.29-.1.11.01.2.08.25.18 4.21 8.2 6.37 17.24 6.37 26.45 0 32.05-25.99 58.04-58.04 58.04a57.859 57.859 0 0 1-37.74-13.95c-12.92-11.06-20.3-27.08-20.3-44.1 0-32.05 25.98-58.04 58.04-58.04 9.4 0 18.62 2.25 26.95 6.62.12.06.18.18.18.31a.34.34 0 0 1-.21.29c-.05.02-.11.04-.16.06-.09.03-.18.03-.27-.02-8.19-4.28-17.24-6.48-26.48-6.48-31.62 0-57.25 25.63-57.25 57.25 0 17.79 8.2 34.45 22.27 45.32.01.05.02.06.03.07m-.55 3.51.05.04a60.63 60.63 0 0 0 7.31 4.55l.04.02c.01 0 .02.01.03.02 8.67 4.56 18.27 6.91 28.07 6.91 33.35 0 60.39-27.04 60.39-60.39 0-9.95-2.42-19.7-7.12-28.47a.316.316 0 0 1 .05-.38c.6-.63 1.2-1.24 1.82-1.85.08-.08.17-.11.28-.09.11.02.19.07.24.17 5.19 9.4 7.87 19.9 7.87 30.63 0 35.09-28.44 63.53-63.53 63.53-8.23 0-16.37-1.58-24-4.69l-.42-.17c-.01 0-.02-.01-.03-.01l-.15-.06-.24-.1c-.39-.17-.78-.34-1.16-.51l-.26-.12c-.38-.17-.76-.35-1.13-.53l-.28-.14c-.36-.17-.72-.35-1.07-.53l-.33-.17-1.02-.54c-.12-.06-.24-.13-.35-.19l-.96-.54c-.13-.08-.27-.15-.4-.23-.3-.18-.6-.35-.9-.53-.15-.09-.29-.18-.44-.27-.28-.17-.56-.35-.85-.53-.16-.1-.31-.2-.47-.3-.26-.17-.53-.34-.79-.52-.17-.11-.34-.23-.51-.34-.25-.17-.5-.34-.74-.51-.18-.13-.36-.25-.54-.38-.23-.16-.45-.33-.68-.5-16.25-12.02-25.79-30.89-25.79-51.11 0-35.09 28.44-63.53 63.53-63.53 12.15 0 23.97 3.44 34.2 9.99.11.07.16.18.15.31s-.09.23-.21.28c-.9.36-1.78.77-2.63 1.24-.11.06-.23.06-.33-.01-9.43-5.7-20.17-8.67-31.19-8.67-33.35 0-60.39 27.04-60.39 60.39 0 19.37 9.22 37.43 24.86 48.83 0-.02.01-.01.02 0z" style="fill:#fff"/></svg>