<svg aria-hidden="true" style="width:0;height:0;position:absolute;overflow:hidden" xmlns="http://www.w3.org/2000/svg"><defs><symbol id="icon-linck-whatsapp" viewBox="0 0 32 32"><path fill="#27d045" d="M32 16c0 8.837-7.163 16-16 16S0 24.837 0 16 7.163 0 16 0s16 7.163 16 16z"/><path fill="none" stroke="#fff" stroke-width="2.286" d="M24.533 15.867a8.4 8.4 0 1 1-16.8 0 8.4 8.4 0 0 1 16.8 0z"/><path fill="none" stroke-width="2.286" d="M23.867 15.867a7.733 7.733 0 1 1-15.466 0 7.733 7.733 0 1 1 15.466 0z"/><path fill="#fff" d="M9.067 20.267 7.84 24.614l4.507-1.253.24-1.387-2.933.933.773-2.8z"/><path fill="#27d045" d="M9.6 22.933c0-.027.933-3.12.933-3.12l2.24 2.107z"/><path fill="#fff" d="M12.791 12.035a2.515 2.515 0 0 0-1.038 1.611l-.002.015c-.133 1.04.507 2.107.507 2.107a13.69 13.69 0 0 0 2.279 2.601l.015.013a7.999 7.999 0 0 0 2.503 1.344l.057.016c.333.137.72.216 1.125.216.206 0 .407-.02.601-.06l-.019.003c.522-.146.96-.447 1.276-.848l.004-.005c.07-.169.126-.367.158-.572l.002-.015a1.565 1.565 0 0 0-.001-.543l.001.009c-.027-.187-1.947-1.067-2.133-1.013s-.347.4-.56.693-.293.427-.507.427-1.147-.373-2.027-1.173a4.238 4.238 0 0 1-1.136-1.572l-.01-.028s.16-.187.373-.48c.161-.176.281-.391.344-.629l.002-.011c0-.133-.747-2.027-.933-2.107a3.132 3.132 0 0 0-.897.002l.017-.002z"/></symbol><symbol id="icon-mail" viewBox="0 0 32 32"><path stroke-width=".667" d="M5.129 23.813c.263.128.56.2.871.2h20c.312 0 .608-.072.871-.2L18.994 16.4l-2.569 2.115c-.114.095-.262.152-.424.152s-.31-.057-.425-.153l.001.001-2.569-2.115-7.877 7.413zm-.938-.946.018-.018 7.76-7.304-7.727-6.363a.677.677 0 0 1-.048-.044 1.962 1.962 0 0 0-.195.859v12.017c0 .307.067.595.191.853zm23.618 0c.12-.249.191-.541.191-.849V10.001c0-.309-.069-.6-.195-.863a.63.63 0 0 1-.047.043l-7.728 6.364 7.779 7.323zm-.95-14.674A1.961 1.961 0 0 0 26.003 8H6c-.307 0-.6.069-.859.193L16 17.136l10.859-8.943zM6 6.667h20A3.333 3.333 0 0 1 29.333 10v12.013A3.333 3.333 0 0 1 26 25.346H6a3.333 3.333 0 0 1-3.333-3.333V10A3.333 3.333 0 0 1 6 6.667z"/></symbol><symbol id="icon-metro-modal" viewBox="0 0 32 32"><path fill="#32c682" style="fill:var(--color3,#32c682)" d="M28.13 24.061 21.257 6.373h-.235l-4.976 9.755-5.155-9.838-7.059 17.772H2.008v1.428h9.994v-1.428h-1.983l1.983-5.554 4.045 6.982 3.887-6.982 1.983 5.554h-1.983v1.428h9.915v-1.428z"/></symbol><symbol id="icon-notar-logo-footer" viewBox="0 0 32 32"><path fill="#fff" style="fill:var(--color2,#fff)" d="m10.725 21.281.022.016c.097.075.196.146.298.215.336-.551 1.114-2.43 1.307-2.888.234-.554.478-1.107.779-1.628.117-.202.243-.398.38-.587l.004-.006c2.463-3.935 5.575-4.855 5.926-4.947-4.188.962-6.97 5.761-7.312 6.379a1.955 1.955 0 0 1-.036.065c-.57-1.055-.389-2.298.353-3.357a2.613 2.613 0 0 0 .311.564l.018.025-.008-.016a1.033 1.033 0 0 1 .144-1.159l.041-.046c.012.188.039.383.086.578.06.244.152.488.286.723a1.973 1.973 0 0 1-.128-.763c.016-.55.263-1.083.695-1.454.453-.391.96-.77 1.498-1.132l-.026.565-.028.631c.061-.302.158-.571.287-.819l-.008.017a3.098 3.098 0 0 1 1.24-1.294l.068-.039a8.598 8.598 0 0 1 1.273-.578 2.938 2.938 0 0 0-.473.873s.034-.074.109-.188c.018-.027.035-.053.054-.078.334-.47.835-.794 1.398-.926 2.752-.641 5.306-.05 5.345-.041h-.002c-.04-.001-.55.02-1.104.192-.173.053-.349.12-.516.207-.77.396-1.064.535-1.856.498.744.287 1.153.189 1.166.186a8.377 8.377 0 0 0-.496.341c-.793.591-1.251 1.173-2.011 1.997-.387.419-1.341 1.027-2.162 1.073l.772.034-.006.008a2.28 2.28 0 0 1-.319.325l-.039.033a2.27 2.27 0 0 1-1.162.483l-.01.001-.467.051 1.261.055-.151.2-.127.168-.138.185a2.616 2.616 0 0 1-2.481 1.022 2.06 2.06 0 0 1-.347-.081c.639.325 1.327.345 1.884.271a4.263 4.263 0 0 1-.078.09c-.121.137-.231.25-.331.333a1.05 1.05 0 0 1-.102.077 3.709 3.709 0 0 1-2.156.633 1.115 1.115 0 0 0-1.02.646c-.28.604-.807 1.794-1.073 2.815a6.58 6.58 0 0 0 3.241.841h.008a6.685 6.685 0 0 0 5.955-9.728.033.033 0 0 1-.004-.017.04.04 0 0 1 .01-.026l.011-.012a.038.038 0 0 1 .034-.012.035.035 0 0 1 .029.021 6.778 6.778 0 0 1-6.034 9.867H14.8a6.73 6.73 0 0 1-4.409-1.637l.009.007a6.778 6.778 0 0 1 7.554-11.155.039.039 0 0 1 .021.036.041.041 0 0 1-.024.034l-.019.007a.03.03 0 0 1-.013.002.035.035 0 0 1-.018-.005 6.685 6.685 0 0 0-7.178 11.222c.001.006.002.007.004.008zm-.065.41.006.005c.245.18.524.356.816.513l.038.019.005.002.004.002a7.053 7.053 0 0 0 9.499-9.571.037.037 0 0 1-.005-.018c0-.01.004-.019.011-.026.07-.074.14-.145.213-.216.009-.009.02-.013.033-.011s.022.008.028.02a7.42 7.42 0 0 1-9.304 10.449l-.049-.02-.004-.001-.018-.007-.028-.012a8.956 8.956 0 0 1-.135-.06l-.03-.014a5.33 5.33 0 0 1-.132-.062l-.033-.016a4.843 4.843 0 0 1-.125-.062l-.039-.02-.119-.063-.041-.022-.112-.063-.047-.027-.105-.062a2.273 2.273 0 0 1-.051-.032l-.099-.062-.055-.035-.092-.061-.06-.04a6.406 6.406 0 0 1-.086-.06l-.063-.044-.079-.058a7.42 7.42 0 0 1 8.402-12.222c.013.008.019.021.018.036s-.011.027-.025.033c-.105.042-.208.09-.307.145a.037.037 0 0 1-.039-.001 7.053 7.053 0 0 0-7.793 11.743c0-.002.001-.001.002 0z"/></symbol><symbol id="icon-phone" viewBox="0 0 32 32"><path stroke-width=".2" d="M21.796 28.129a12.469 12.469 0 0 1-2.986-.384l.086.019c-3.277-.791-6.651-2.796-9.5-5.648s-4.857-6.226-5.647-9.5c-.833-3.444-.239-6.39 1.67-8.299l.545-.545c.477-.476 1.136-.771 1.863-.771s1.386.294 1.863.771l3.132 3.131c.476.477.771 1.136.771 1.863s-.295 1.386-.771 1.863l-1.85 1.849c.887 1.556 2.093 3.114 3.519 4.539s2.984 2.633 4.54 3.519l1.849-1.85c.477-.477 1.136-.772 1.863-.772s1.386.295 1.863.772l3.131 3.131c.477.477.771 1.135.771 1.863s-.295 1.386-.771 1.863l-.546.545c-1.346 1.348-3.208 2.039-5.396 2.039zM7.826 4.875h-.004a.75.75 0 0 0-.533.222l-.546.545c-1.429 1.429-1.847 3.75-1.176 6.531.711 2.946 2.54 6.006 5.151 8.616s5.671 4.438 8.617 5.151c2.781.671 5.101.254 6.53-1.176l.545-.545a.757.757 0 0 0 0-1.074l-3.131-3.131a.757.757 0 0 0-1.074 0l-2.344 2.344a.934.934 0 0 1-1.099.168l.005.002c-1.922-.994-3.859-2.441-5.603-4.184s-3.188-3.68-4.184-5.602a.937.937 0 0 1 .169-1.094l2.345-2.344a.757.757 0 0 0 0-1.074L8.363 5.098a.755.755 0 0 0-.535-.223h-.003z"/><path stroke-width=".2" d="M22.797 16.858a.938.938 0 0 1-.938-.938 6.211 6.211 0 0 0-6.203-6.204.938.938 0 0 1 0-1.876c4.454 0 8.078 3.625 8.078 8.079 0 .518-.42.938-.938.938z"/><path stroke-width=".2" d="M26.759 16.858a.938.938 0 0 1-.938-.938c0-5.606-4.563-10.166-10.166-10.166a.938.938 0 0 1 0-1.876c6.639 0 12.041 5.402 12.041 12.041 0 .518-.42.938-.938.938z"/></symbol><symbol id="icon-linck-phone" viewBox="0 0 32 32"><path fill="#37c837" d="M31.894 16v.114c0 8.778-7.116 15.894-15.894 15.894S.106 24.892.106 16.114v-.12V16v-.114C.106 7.108 7.222-.008 16-.008s15.894 7.116 15.894 15.894v.12V16z"/><path fill="#afe9af" d="M31.894 16v.114c0 8.778-7.116 15.894-15.894 15.894S.106 24.892.106 16.114v-.12V16v-.114C.106 7.108 7.222-.008 16-.008s15.894 7.116 15.894 15.894v.12V16z"/><path fill="#0AC916" d="M31.894 16v.114c0 8.778-7.116 15.894-15.894 15.894S.106 24.892.106 16.114v-.12V16v-.114C.106 7.108 7.222-.008 16-.008s15.894 7.116 15.894 15.894v.12V16z"/><path fill="#fff" d="M20.534 26.153c.9-.28 1.882-.661 2.213-.858.222-.132.253-.177.177-.251-.557-.539-4.475-3.972-4.51-3.951-.025.016-.089.26-.142.544-.104.56-.203.688-.528.687-.268 0-.445-.15-.701-.596-.112-.194-.293-.468-.402-.608s-.33-.49-.491-.777-.443-.761-.627-1.052a44.583 44.583 0 0 1-1.101-1.822c-.079-.144-.273-.437-.432-.652s-.361-.532-.45-.706c-.089-.174-.343-.587-.565-.917s-.488-.768-.593-.974a10.729 10.729 0 0 0-.424-.742c-.298-.466-.644-1.159-.704-1.407-.036-.151-.006-.229.149-.374.208-.196.222-.196.885.004.224.068.422.108.44.091.032-.032-1.485-5.913-1.54-5.967-.04-.04-1.816 1.452-1.816 1.525 0 .033-.155.214-.344.402s-.457.522-.596.742c-.219.347-.263.493-.331 1.095-.215 1.911.289 4.737 1.246 6.982.515 1.209.824 1.815 1.19 2.331.165.233.388.599.495.813.573 1.148 2.378 3.242 3.638 4.218.869.674 2.714 1.88 3.141 2.052 1.247.505 1.576.525 2.723.168zm3.18-2.166c.27-.664.278-.703.159-.815-.1-.095-3.266-2.851-3.703-3.224-.102-.087-.205-.055-.84.264-.609.306-.708.378-.626.458.301.29 4.688 4.053 4.705 4.036.011-.011.148-.334.304-.718zm-9.728-12.705c.3-.228.544-.419.543-.424-.081-.379-1.265-5.009-1.286-5.029-.041-.041-1.552-.253-1.583-.222-.019.019.396 1.623 1.535 5.933.081.305.031.322.791-.257z"/></symbol><symbol id="icon-linck-telegram" viewBox="0 0 32 32"><path fill="#1d93d2" d="M32 16c0 8.837-7.163 16-16 16S0 24.837 0 16 7.163 0 16 0s16 7.163 16 16z"/><path fill="#c8daea" d="m10.831 17.17 1.898 5.254s.237.492.491.492 4.034-3.932 4.034-3.932l4.203-8.119-10.559 4.949z"/><path fill="#a9c6d8" d="m13.347 18.517-.364 3.873s-.153 1.187 1.034 0 2.322-2.102 2.322-2.102z"/><path fill="#fff" d="M10.865 17.357 6.96 16.085s-.467-.189-.316-.619c.031-.089.093-.164.28-.293.865-.603 16.014-6.048 16.014-6.048s.428-.144.68-.048a.37.37 0 0 1 .251.272v.002c.022.088.035.189.035.293l-.001.054v-.003c-.001.1-.013.193-.023.339-.092 1.489-2.853 12.599-2.853 12.599s-.165.65-.757.672l-.035.001c-.294 0-.56-.117-.755-.306-1.161-.999-5.176-3.697-6.063-4.29a.168.168 0 0 1-.073-.119v-.001c-.012-.063.056-.14.056-.14s6.99-6.213 7.176-6.866c.014-.05-.04-.075-.113-.053-.464.171-8.513 5.253-9.401 5.814a.408.408 0 0 1-.2.011h.003z"/></symbol><symbol id="icon-linck-viber" viewBox="0 0 32 32"><path fill="#7d3daf" style="fill:var(--color10,#7d3daf)" d="M7.183 0h17.635a7.183 7.183 0 0 1 7.183 7.183v17.635a7.183 7.183 0 0 1-7.183 7.183H7.183A7.183 7.183 0 0 1 0 24.818V7.183A7.183 7.183 0 0 1 7.183 0z"/><path fill="#fff" style="fill:var(--color2,#fff)" d="M24.197 11.395a5.948 5.948 0 0 0-3.948-3.836l-.042-.011c-1.256-.253-2.701-.397-4.179-.397s-2.922.145-4.319.421l.141-.023a5.947 5.947 0 0 0-4.078 3.782l-.013.042c-.244 1.058-.383 2.272-.383 3.519s.14 2.462.404 3.629l-.021-.109a5.992 5.992 0 0 0 3.727 3.778l.042.013v1.873a.753.753 0 0 0 1.297.521l1.895-1.962h1.23a22.347 22.347 0 0 0 4.32-.422l-.141.023a5.947 5.947 0 0 0 3.978-3.804l.012-.042c.266-1.104.418-2.371.418-3.674 0-1.175-.124-2.322-.36-3.427l.019.107zm-1.497 6.65a4.459 4.459 0 0 1-2.784 2.696l-.031.009a20.105 20.105 0 0 1-4.464.354l.03.001a.097.097 0 0 0-.078 0h.001l-1.397 1.507-1.474 1.507a.177.177 0 0 1-.299-.121v-3.093a.11.11 0 0 0-.088-.1h-.001a4.458 4.458 0 0 1-2.805-2.674L9.3 18.1c-.219-.956-.345-2.054-.345-3.181s.126-2.225.364-3.28l-.019.099a4.459 4.459 0 0 1 2.784-2.696l.031-.009c1.166-.234 2.507-.367 3.879-.367s2.713.134 4.01.389l-.131-.021a4.458 4.458 0 0 1 2.805 2.674l.01.031c.223.964.351 2.07.351 3.206a14.86 14.86 0 0 1-.359 3.255l.019-.099z"/><path fill="#fff" style="fill:var(--color2,#fff)" d="M19.752 17.557a8.678 8.678 0 0 0-.691-.524l-.03-.019c-.255-.177-.499-.355-.765-.521-.111-.084-.252-.134-.405-.134s-.293.05-.406.136l.002-.001c-.244.2-.366.587-.709.632h-.029c-.201 0-.39-.054-.553-.147l.005.003a4.03 4.03 0 0 1-2.209-2.466l-.008-.028a.49.49 0 0 1 .001-.447l-.001.003a.781.781 0 0 1 .175-.187l.002-.001.233-.177a.722.722 0 0 0 .198-.978l.002.003a8.965 8.965 0 0 0-1.115-1.514l.006.007a.554.554 0 0 0-.701-.165l.003-.001a2.599 2.599 0 0 0-.862.651l-.003.003a1.106 1.106 0 0 0-.331 1.116l-.002-.008c.177.432.355.865.554 1.286a10.96 10.96 0 0 0 1.619 2.474l-.011-.013a11.167 11.167 0 0 0 4.125 2.789l.076.026c.155.067.321.1.488.155.17-.038.318-.088.459-.15l-.016.006a2.4 2.4 0 0 0 1.025-1.094l.006-.015a.564.564 0 0 0-.132-.698l-.001-.001zm-3.746-7.038h-.124a.255.255 0 0 0-.255.255l.002.035v-.001c0 .188.222.188.377.211s.477 0 .698.078a3.722 3.722 0 0 1 2.99 3.083l.003.021c0 .288.055.587.078.887s.089.288.255.288a.244.244 0 0 0 .233-.29v.002c0-.355 0-.709-.111-1.108a4.23 4.23 0 0 0-4.145-3.458z"/><path fill="#fff" style="fill:var(--color2,#fff)" d="M18.677 14.576a.623.623 0 0 0 0 .203v-.004a.234.234 0 0 0 .443.002v-.002a.815.815 0 0 0 0-.147v.003-.488a2.754 2.754 0 0 0-1.481-2.132l-.016-.007a3.195 3.195 0 0 0-1.357-.354h-.006l-.022-.001a.222.222 0 0 0-.222.222v.001a.222.222 0 0 0 .21.255l.399.066c.294.047.559.132.804.251l-.017-.007c.416.209.752.523.981.909l.006.011c.175.334.278.73.278 1.15l-.001.073v-.004z"/><path fill="#fff" style="fill:var(--color2,#fff)" d="M18.056 14.409a.623.623 0 0 0 0-.203v.004-.011c0-.79-.64-1.43-1.43-1.43l-.017-.001a.256.256 0 0 0-.249.198v.002a.232.232 0 0 0 .187.277h.001c.122 0 .255 0 .388.055.106.03.198.076.28.135l-.003-.002a.929.929 0 0 1 .342.537l.001.006a2.835 2.835 0 0 1-.001.34v-.008c0 .141.114.255.255.255h.012-.001a.21.21 0 0 0 .232-.154v-.001z"/></symbol><symbol id="icon-linck-mail" viewBox="0 0 32 32"><path fill="#3498db" style="fill:var(--color11,#3498db)" d="M32 16c0 8.837-7.163 16-16 16S0 24.837 0 16 7.163 0 16 0s16 7.163 16 16z"/><path fill="#fff" style="fill:var(--color2,#fff)" d="m16 17.863 9.25-8.031H6.75L16 17.863zm-2.5-.875 2.5 2.038 2.444-2.038 6.75 5.819H6.75l6.75-5.819zm-7.331 5.181V10.475l6.75 5.819-6.75 5.875zm19.662 0V10.475l-6.75 5.819 6.75 5.875z"/></symbol><symbol id="icon-check" viewBox="0 0 32 32"><path d="M27 4 12 19l-7-7-5 5 12 12L32 9z"/></symbol><symbol id="icon-switch" viewBox="0 0 32 32"><path d="M20 4.581V8.83a10 10 0 0 1 3.071 2.099C24.96 12.818 26 15.329 26 18s-1.04 5.182-2.929 7.071C21.182 26.96 18.671 28 16 28s-5.182-1.04-7.071-2.929C7.04 23.182 6 20.671 6 18s1.04-5.182 2.929-7.071A9.982 9.982 0 0 1 12 8.83V4.581C6.217 6.302 2 11.658 2 18c0 7.732 6.268 14 14 14s14-6.268 14-14c0-6.342-4.217-11.698-10-13.419zM14 0h4v16h-4z"/></symbol><symbol id="icon-cancel-circle" viewBox="0 0 32 32"><path d="M16 0C7.163 0 0 7.163 0 16s7.163 16 16 16 16-7.163 16-16S24.837 0 16 0zm0 29C8.82 29 3 23.18 3 16S8.82 3 16 3s13 5.82 13 13-5.82 13-13 13z"/><path d="m21 8-5 5-5-5-3 3 5 5-5 5 3 3 5-5 5 5 3-3-5-5 5-5z"/></symbol></defs></svg>