<svg xmlns="http://www.w3.org/2000/svg" xmlns:xlink="http://www.w3.org/1999/xlink" id="svg2" viewBox="0 0 280.191 283.719" version="1.1" width="100%" height="100%"><defs id="defs4"><linearGradient id="linearGradient3917"><stop id="stop3919" style="stop-color:#edf4fd;stop-opacity:.52846" offset="0"/><stop id="stop3921" style="stop-color:#175bb3;stop-opacity:0" offset="1"/></linearGradient><linearGradient id="linearGradient3952-0"><stop id="stop3954-4" style="stop-color:#0146a8" offset="0"/><stop id="stop3956-0" style="stop-color:#0146a8;stop-opacity:0" offset="1"/></linearGradient><linearGradient id="linearGradient3917-8"><stop id="stop3919-8" style="stop-color:#edf4fd;stop-opacity:.52846" offset="0"/><stop id="stop3921-7" style="stop-color:#175bb3;stop-opacity:0" offset="1"/></linearGradient><linearGradient xlink:href="#linearGradient3952-0" id="linearGradient4207" gradientUnits="userSpaceOnUse" x1="379.92" y1="-298.54" x2="387.75" y2="-148.13"/><linearGradient xlink:href="#linearGradient3917-8" id="linearGradient4212" gradientUnits="userSpaceOnUse" gradientTransform="matrix(.17258 0 0 .17916 534.062 576.781)" x1="381.89" y1="-310.05" x2="387.75" y2="-147.97"/><linearGradient xlink:href="#linearGradient3952-1" id="linearGradient3164-7" gradientUnits="userSpaceOnUse" x1="379.92" y1="-298.54" x2="387.75" y2="-148.13"/><linearGradient id="linearGradient3952-1"><stop id="stop3954-3" style="stop-color:#0146a8" offset="0"/><stop id="stop3956-3" style="stop-color:#0146a8;stop-opacity:0" offset="1"/></linearGradient><linearGradient id="linearGradient5377-9" y2="-147.97" xlink:href="#linearGradient3917-0" gradientUnits="userSpaceOnUse" x2="387.75" gradientTransform="matrix(.93571 0 0 .97143 387.17 670.23)" y1="-310.05" x1="381.89"/><linearGradient id="linearGradient3917-0"><stop id="stop3919-3" style="stop-color:#edf4fd;stop-opacity:.52846" offset="0"/><stop id="stop3921-3" style="stop-color:#175bb3;stop-opacity:0" offset="1"/></linearGradient><linearGradient y2="-147.97" x2="387.75" y1="-310.05" x1="381.89" gradientTransform="matrix(.93571 0 0 .97143 387.17 670.23)" gradientUnits="userSpaceOnUse" id="linearGradient4316" xlink:href="#linearGradient3917-0"/><linearGradient xlink:href="#linearGradient3917-0" id="linearGradient4354" gradientUnits="userSpaceOnUse" gradientTransform="matrix(.17258 0 0 .17916 582.81 629.221)" x1="381.89" y1="-310.05" x2="387.75" y2="-147.97"/><linearGradient xlink:href="#linearGradient3952-1" id="linearGradient4397" gradientUnits="userSpaceOnUse" x1="379.92" y1="-298.54" x2="387.75" y2="-148.13"/><linearGradient xlink:href="#linearGradient3917-0" id="linearGradient4399" gradientUnits="userSpaceOnUse" gradientTransform="matrix(.17258 0 0 .17916 582.81 629.221)" x1="381.89" y1="-310.05" x2="387.75" y2="-147.97"/><linearGradient xlink:href="#linearGradient3952-0" id="linearGradient4401" gradientUnits="userSpaceOnUse" x1="379.92" y1="-298.54" x2="387.75" y2="-148.13"/><linearGradient xlink:href="#linearGradient3917-8" id="linearGradient4403" gradientUnits="userSpaceOnUse" gradientTransform="matrix(.17258 0 0 .17916 534.062 576.781)" x1="381.89" y1="-310.05" x2="387.75" y2="-147.97"/></defs><g id="layer1" transform="translate(-78.91 -711.297)"><g id="g4360" transform="translate(-4278.04 -3241.683) scale(6.92141)"><path id="path4167-7" style="fill:#103683;stroke-width:1.9px" d="M497.423-208.45c0 60.567-49.1 109.667-109.668 109.667-60.568 0-109.668-49.1-109.668-109.668 0-60.568 49.1-109.668 109.668-109.668 60.568 0 109.668 49.1 109.668 109.668z" transform="matrix(.18443 0 0 .18676 578.215 630.549)"/><path id="path4169-3" style="fill:url(#linearGradient4397);stroke-width:1.9px" d="M497.423-208.45c0 60.567-49.1 109.667-109.668 109.667-60.568 0-109.668-49.1-109.668-109.668 0-60.568 49.1-109.668 109.668-109.668 60.568 0 109.668 49.1 109.668 109.668z" transform="matrix(.17258 0 0 .17916 582.81 629.221)"/><g style="fill:#fff;fill-opacity:1" transform="matrix(.29071 0 0 .29071 639.566 576.609)" id="g4287"><path style="fill:#fff;fill-opacity:1" id="path3480_1_" d="M21.547.091S-.28.378.003 20.15c.284 19.773 4.253 37.255 10.773 46.998 6.519 9.744 23.242 35.248 42.236 32.67 0 0 9.355-2.007 16.44-6.593l-22.96-18.054s-6.803 4.299-11.055-1.433c-4.253-5.73-17.575-32.381-17.575-32.381s-3.685-8.598 4.536-12.323L21.547.091z"/><path style="fill:#fff;fill-opacity:1" id="path3482_1_" d="M24.099.091S25.8-.48 28.917 1.238c3.118 1.719 3.118 3.15 3.118 3.15l.284 19.775s-.851 1.147-1.984 2.291c-1.134 1.146-4.819 2.867-5.387 1.72-.565-1.145-.849-28.083-.849-28.083z"/><path style="fill:#fff;fill-opacity:1" id="path3484_1_" d="m48.401 73.058 6.312-3.332s1.417-.285 3.684 1.146c2.268 1.436 14.174 10.893 14.174 10.893s1.984 1.719 1.417 3.725c-.566 2.006-1.984 6.305-1.984 6.305L48.401 73.058z"/></g><path id="path4171-4" style="fill:url(#linearGradient4399);stroke-width:1.9px" d="M649.729 572.222c-10.453 0-18.927 8.802-18.927 19.653 0 .692.037 1.373.104 2.046 9.234 3.454 23.346 5.97 37.752-1.954v-.092c0-10.851-8.475-19.653-18.927-19.653z"/></g></g></svg>