<svg xmlns="http://www.w3.org/2000/svg" version="1.1" width="119.585" height="44.07mm" viewBox="0 0 9.39 13.08" id="svg2" xml:space="preserve" style="fill-rule:evenodd"><g id="Layer_x0020_1"><path d="M4.652 13.058a605.27 605.27 0 0 0-3.688-1.643l-.006-.003-.004-.002A1.782 1.782 0 0 1 0 9.88V0h9.39v9.88c.001.057.006 1-.954 1.53l-.003.002-.007.003c-.912.397-3.668 1.64-3.676 1.643l-.05.022-.048-.022zm-3.585-1.859c.856.372 3.26 1.45 3.633 1.618.37-.167 2.753-1.24 3.624-1.619.858-.477.828-1.315.828-1.317V.24H.238v9.64l-.001.003c-.001.002-.031.84.826 1.316z" id="path10" style="fill:#fff;fill-rule:nonzero"/><path d="M4.7.91c-.396.44-.402.99-.402 1.092 0 .584.076 1.621.076 2.757 0 1.776-.852 2.958-.852 2.958s-.015.03-.189.03-.55-.142-.55-.56c0-.416.46-.532.547-.532.087 0 .13.014.13.014l-.283-2.48c-.38-1.84-1.762-2.482-1.762-2.482v7.954h1.842s.134 1.121 1.117 1.836c0 0 .312.268.327.355.015-.087.327-.355.327-.355.983-.715 1.117-1.836 1.117-1.836h1.843V1.708S6.605 2.35 6.224 4.19l-.283 2.48c.001 0 .045-.014.132-.014s.547.116.547.533c0 .416-.378.557-.552.557s-.188-.029-.188-.029-.853-1.182-.853-2.96c0-1.135.076-2.172.076-2.756 0-.101-.005-.653-.402-1.093zm-.282 8.752h-.566s.062.657.566 1.125V9.662zm.566 0h.565s-.062.657-.566 1.125V9.662zM7.428 2.88s-.5.624-.645 1.356c-.08.675-.24 1.988-.24 1.988s.48.203.588.704h.298V2.88zM6.093 8.306c.117 0 .882-.112 1.038-.827h.298v1.646H6.21s0-.45-.117-.82zm-.453.812h-.664s.022-.587.577-.674c.047.152.087.337.087.674zM4.7 6.42s-.242.9-.63 1.487c.145.094.63.424.63.424 0 .001.487-.329.632-.423C4.944 7.32 4.7 6.42 4.7 6.42zm-.939 2.698h.665s-.021-.587-.577-.674a2.12 2.12 0 0 0-.087.674zm-.452-.812c-.116 0-.881-.112-1.037-.827h-.297v1.646h1.219s0-.45.116-.82zM1.973 2.88s.5.624.646 1.356c.079.675.238 1.988.238 1.988s-.479.203-.587.704h-.297V2.88z" id="path12" style="fill:#fff"/></g></svg>