<?xml version="1.0" standalone="no"?>
<!DOCTYPE svg PUBLIC "-//W3C//DTD SVG 20010904//EN"
 "http://www.w3.org/TR/2001/REC-SVG-20010904/DTD/svg10.dtd">
<svg version="1.0" xmlns="http://www.w3.org/2000/svg"
 width="128.000000pt" height="128.000000pt" viewBox="0 0 128.000000 128.000000"
 preserveAspectRatio="xMidYMid meet">

<g transform="translate(0.000000,128.000000) scale(0.100000,-0.100000)"
fill="rgb(10, 201, 22)" stroke="rgb(10, 201, 22)">
<path d="M539 1270 c-30 -5 -85 -20 -122 -34 -184 -69 -317 -209 -383 -401
-23 -69 -27 -96 -27 -195 0 -99 4 -126 27 -195 157 -459 718 -594 1057 -256
336 337 202 903 -251 1055 -85 28 -215 39 -301 26z m496 -267 c-11 -61 -44
-153 -85 -238 -58 -120 -54 -117 -125 -95 l-60 19 44 -38 c52 -45 50 -53 -35
-129 -88 -79 -231 -142 -322 -142 -26 0 -45 -11 -85 -49 -48 -45 -54 -48 -72
-35 -18 14 -17 16 32 67 46 47 51 57 57 111 4 32 18 89 33 125 26 65 81 157
89 148 3 -2 20 -26 39 -53 42 -59 43 -53 10 93 -4 17 6 31 52 65 32 24 80 57
106 72 47 27 49 27 62 9 44 -61 44 -61 35 -18 -5 22 -10 43 -10 46 0 13 182
77 224 78 16 1 17 -4 11 -36z"/>
</g>
</svg>
