<?xml version="1.0" encoding="utf-8"?>
<!-- Generator: Adobe Illustrator 25.4.1, SVG Export Plug-In . SVG Version: 6.00 Build 0)  -->
<svg version="1.1" id="Слой_1" xmlns="http://www.w3.org/2000/svg" xmlns:xlink="http://www.w3.org/1999/xlink" x="0px" y="0px"
	 viewBox="0 0 274.13 160.74" style="enable-background:new 0 0 274.13 160.74;" xml:space="preserve">
<style type="text/css">
	.st0{fill-rule:red;clip-rule:red;fill: rgba(0, 0, 0, 0); }
	.st1{fill:#FFFFFF;}
</style>
<rect x="1" y="1" class="st0" width="272.13" height="158.74"/>
<path class="st1" d="M91.83,125.72l0.19,0.14c0.83,0.64,1.68,1.25,2.55,1.84c2.88-4.72,9.54-20.81,11.19-24.73
	c2-4.74,4.09-9.48,6.67-13.94c1-1.73,2.08-3.41,3.25-5.03c0.01-0.01,0.02-0.03,0.03-0.05c21.09-33.69,47.74-41.57,50.74-42.36
	c-35.86,8.24-59.68,49.33-62.61,54.62c-0.2,0.37-0.31,0.56-0.31,0.56c-4.88-9.03-3.33-19.68,3.02-28.74
	c0.49,1.22,1.1,2.42,1.82,3.58c0.26,0.42,0.54,0.84,0.84,1.25c0.05,0.07,0.1,0.14,0.15,0.21c-0.01-0.02-0.04-0.07-0.07-0.14
	c-1.69-3.23-1.18-7.18,1.23-9.92c0.12-0.13,0.23-0.26,0.35-0.39c0.1,1.61,0.33,3.28,0.74,4.95c0.51,2.09,1.3,4.18,2.45,6.19
	c-0.03-0.08-0.18-0.44-0.37-1.05c-0.55-1.8-0.79-3.65-0.73-5.48c0.14-4.71,2.25-9.27,5.95-12.45c3.88-3.35,8.22-6.59,12.83-9.69
	l-0.22,4.84l-0.24,5.4c0.48-2.41,1.29-4.72,2.39-6.87c2.35-4.61,6.02-8.49,10.62-11.08c0.19-0.11,0.38-0.21,0.58-0.33
	c3.56-1.99,7.22-3.62,10.9-4.95c-1.27,1.62-2.41,3.44-3.29,5.47c-0.28,0.64-0.53,1.31-0.76,2c0,0,0.29-0.63,0.93-1.61
	c0.15-0.23,0.3-0.45,0.46-0.67c2.86-4.02,7.15-6.8,11.97-7.93c23.56-5.49,45.43-0.43,45.77-0.35c0,0-0.01,0-0.02,0
	c-0.34-0.01-4.71,0.17-9.45,1.64c-1.48,0.45-2.99,1.03-4.42,1.77c-6.59,3.39-9.11,4.58-15.89,4.26c6.37,2.46,9.87,1.62,9.98,1.59
	c-0.81,0.52-1.57,1.02-2.3,1.53c-0.68,0.47-1.32,0.93-1.94,1.39c-6.79,5.06-10.71,10.04-17.22,17.1
	c-3.31,3.59-11.48,8.79-18.51,9.19l6.61,0.29l-0.05,0.07c-0.82,1.02-1.73,1.95-2.73,2.78c-0.11,0.09-0.22,0.18-0.33,0.28
	c-2.87,2.28-6.35,3.74-10.04,4.14l-4,0.44l10.8,0.47c-0.44,0.58-0.87,1.15-1.29,1.71c-0.37,0.49-0.73,0.97-1.09,1.44
	c-0.4,0.53-0.8,1.06-1.18,1.58c-4.95,6.58-13.1,10-21.24,8.75c-1.86-0.29-2.97-0.69-2.97-0.69c5.47,2.78,11.36,2.95,16.13,2.32
	c-0.23,0.27-0.45,0.53-0.67,0.77c-1.04,1.17-1.98,2.14-2.83,2.85c-0.3,0.25-0.59,0.48-0.87,0.66c-6.45,4.4-13.2,5.48-18.46,5.42
	c-3.74-0.04-7.15,2.14-8.73,5.53c-2.4,5.17-6.91,15.36-9.19,24.1c0.93,0.52,1.87,1.01,2.82,1.47c7.8,3.79,16.33,5.73,25,5.73
	c31.62,0,57.25-25.63,57.25-57.25c0-9.07-2.12-17.97-6.26-26.05c-0.06-0.12-0.04-0.27,0.05-0.37c0.03-0.03,0.06-0.07,0.09-0.1
	c0.07-0.08,0.18-0.12,0.29-0.1c0.11,0.01,0.2,0.08,0.25,0.18c4.21,8.2,6.37,17.24,6.37,26.45c0,32.05-25.99,58.04-58.04,58.04
	c-8.81,0-17.47-1.98-25.39-5.84c-4.44-2.16-8.59-4.89-12.35-8.11c-12.92-11.06-20.3-27.08-20.3-44.1
	c0-32.05,25.98-58.04,58.04-58.04c9.4,0,18.62,2.25,26.95,6.62c0.12,0.06,0.18,0.18,0.18,0.31c-0.01,0.13-0.09,0.24-0.21,0.29
	c-0.05,0.02-0.11,0.04-0.16,0.06c-0.09,0.03-0.18,0.03-0.27-0.02c-8.19-4.28-17.24-6.48-26.48-6.48
	c-31.62,0-57.25,25.63-57.25,57.25c0,17.79,8.2,34.45,22.27,45.32C91.81,125.7,91.82,125.71,91.83,125.72 M91.28,129.23l0.05,0.04
	c2.33,1.69,4.77,3.21,7.31,4.55l0.04,0.02c0.01,0,0.02,0.01,0.03,0.02c8.67,4.56,18.27,6.91,28.07,6.91
	c33.35,0,60.39-27.04,60.39-60.39c0-9.95-2.42-19.7-7.12-28.47c-0.07-0.13-0.05-0.28,0.05-0.38c0.6-0.63,1.2-1.24,1.82-1.85
	c0.08-0.08,0.17-0.11,0.28-0.09c0.11,0.02,0.19,0.07,0.24,0.17c5.19,9.4,7.87,19.9,7.87,30.63c0,35.09-28.44,63.53-63.53,63.53
	c-8.23,0-16.37-1.58-24-4.69l-0.42-0.17c-0.01,0-0.02-0.01-0.03-0.01c-0.05-0.02-0.1-0.04-0.15-0.06l-0.24-0.1
	c-0.39-0.17-0.78-0.34-1.16-0.51l-0.26-0.12c-0.38-0.17-0.76-0.35-1.13-0.53l-0.28-0.14c-0.36-0.17-0.72-0.35-1.07-0.53l-0.33-0.17
	c-0.34-0.18-0.68-0.36-1.02-0.54c-0.12-0.06-0.24-0.13-0.35-0.19c-0.32-0.18-0.64-0.36-0.96-0.54c-0.13-0.08-0.27-0.15-0.4-0.23
	c-0.3-0.18-0.6-0.35-0.9-0.53c-0.15-0.09-0.29-0.18-0.44-0.27c-0.28-0.17-0.56-0.35-0.85-0.53c-0.16-0.1-0.31-0.2-0.47-0.3
	c-0.26-0.17-0.53-0.34-0.79-0.52c-0.17-0.11-0.34-0.23-0.51-0.34c-0.25-0.17-0.5-0.34-0.74-0.51c-0.18-0.13-0.36-0.25-0.54-0.38
	c-0.23-0.16-0.45-0.33-0.68-0.5c-16.25-12.02-25.79-30.89-25.79-51.11c0-35.09,28.44-63.53,63.53-63.53
	c12.15,0,23.97,3.44,34.2,9.99c0.11,0.07,0.16,0.18,0.15,0.31s-0.09,0.23-0.21,0.28c-0.9,0.36-1.78,0.77-2.63,1.24
	c-0.11,0.06-0.23,0.06-0.33-0.01c-9.43-5.7-20.17-8.67-31.19-8.67c-33.35,0-60.39,27.04-60.39,60.39c0,19.37,9.22,37.43,24.86,48.83
	C91.26,129.21,91.27,129.22,91.28,129.23z"/>
</svg>
