<svg xmlns="http://www.w3.org/2000/svg" id="NXReportSuccess" width="110" height="110" fill="#32c682" viewBox="0 0 120 120"><style>@keyframes NXReportSuccess1-animation{  }@keyframes NXReportSuccess1-animation{  }@keyframes NXReportSuccess4-animation{  }@keyframes NXReportSuccess4-animation{  }@keyframes NXReportSuccess3-animation{  }@keyframes NXReportSuccess3-animation{  }@keyframes NXReportSuccess2-animation{  }@keyframes NXReportSuccess2-animation{  }#NXReportSuccess * {  }</style><g style="transform: translate(60px, 60px) scale(1, 1) translate(-60px, -60px);"><path d="M60 115.38C29.46 115.38 4.62 90.54 4.62 60S29.46 4.62 60 4.62 115.38 29.46 115.38 60 90.54 115.38 60 115.38zM60 0C26.92 0 0 26.92 0 60s26.92 60 60 60 60-26.92 60-60S93.08 0 60 0z" style="" fill="inherit" data-animator-group="true" data-animator-type="2"/></g><g style="transform: translate(60px, 57.7px) scale(1, 1) translate(-60px, -57.7px);"><path d="M88.27 35.39 52.8 75.29 31.43 58.2c-.98-.81-2.44-.63-3.24.36-.79.99-.63 2.44.36 3.24l23.08 18.46c.43.34.93.51 1.44.51.64 0 1.27-.26 1.74-.78l36.91-41.53a2.3 2.3 0 0 0-.19-3.26c-.95-.86-2.41-.77-3.26.19z" style="" fill="inherit" data-animator-group="true" data-animator-type="2"/></g></svg>