<svg id="Livello_1" data-name="Livello 1" xmlns="http://www.w3.org/2000/svg" viewBox="0 0 240 240"><defs><linearGradient id="linear-gradient" x1="120" y1="240" x2="120" gradientUnits="userSpaceOnUse"><stop offset="0" stop-color="#1d93d2"/><stop offset="1" stop-color="#38b0e3"/></linearGradient></defs><circle cx="120" cy="120" r="120" fill="url(#linear-gradient)"/><path d="m81.23 128.772 14.236 39.406s1.78 3.687 3.686 3.687 30.255-29.492 30.255-29.492l31.525-60.89L81.737 118.6z" fill="#c8daea"/><path d="m100.106 138.878-2.733 29.046s-1.144 8.9 7.754 0 17.415-15.763 17.415-15.763" fill="#a9c6d8"/><path d="M81.486 130.178 52.2 120.636s-3.5-1.42-2.373-4.64c.232-.664.7-1.23 2.1-2.2 6.49-4.523 120.106-45.36 120.106-45.36s3.208-1.08 5.1-.362a2.766 2.766 0 0 1 1.885 2.055 9.357 9.357 0 0 1 .254 2.584c-.01.752-.1 1.45-.17 2.542-.69 11.165-21.4 94.493-21.4 94.493s-1.238 4.875-5.677 5.042a8.13 8.13 0 0 1-5.925-2.292c-8.71-7.493-38.82-27.727-45.472-32.177a1.27 1.27 0 0 1-.546-.9c-.093-.47.417-1.05.417-1.05s52.425-46.6 53.82-51.492c.108-.378-.3-.565-.848-.4-3.482 1.282-63.844 39.4-70.506 43.608a3.21 3.21 0 0 1-1.48.09z" fill="#fff"/></svg>