<!--version="1.0" encoding="UTF-8" standalone="no"--><!-- Created with Inkscape (http://www.inkscape.org/) --><svg xmlns:inkscape="http://www.inkscape.org/namespaces/inkscape" xmlns="http://www.w3.org/2000/svg" xmlns:sodipodi="http://sodipodi.sourceforge.net/DTD/sodipodi-0.dtd" id="svg2" sodipodi:docname="open_quotations.svg" viewBox="0 0 302 302" version="1.1" inkscape:version="0.48.4 r9939"><defs id="defs4"><clipPath id="clipPath3142" clipPathUnits="userSpaceOnUse"><g id="g3144" inkscape:label="Layer 1" transform="matrix(1.2952 0 0 1.3048 -723.21 -316.05)"><path id="path3146" style="fill: rgb(0, 0, 0);" d="m619.54 623.77-.219 13.062c-.107 7.189-.378 14.371-.624 15.97-.246 1.597-.524 4.118-.594 5.593-.07 1.474-.186-.44-.28-4.25l-.188-6.938-.25 4.72-.25 4.687-.344-4.25c-.187-2.335-.474-6.07-.656-8.282l-.344-4-.219 4.688c-.144-.674-.29-1.31-.436-1.875v38.03c.106-.41.203-.732.312-1.155.17.17.437 3.575.594 7.562l.281 7.25.157-7.593c.08-4.18.25-6.893.375-6.033l.22 1.563.312-1.563c.287-1.447.308-1.368.437.907.14 2.45.153 2.436.439-.907.175-2.065.358 1.964.467 10.5l.188 13.844.25-8.718c.14-4.848.29-6.862.344-4.562.055 2.393.271 4.125.53 4.125.246 0 .506 1.053.562 2.344.072-.784.233-5.88.344-12.845l.25-15.188.094 19.562.094 19.53h.437l.064-15.062h.03c.039-9.021.173-14.095.376-12.625.187 1.352.389 4.544.438 7.125s.25 5.804.437 7.156c.271 1.962.343 1.14.438-4.031.065-3.564.265-9.374.437-12.938l.312-6.5.188 5.812.156 5.813.281-5.813c.206-4.522.298-2.765.407 7.844.178 17.38.741 22.998.906 8.939.064-5.531.25-9.68.406-9.189.156.493.393-.816.531-2.905.186-2.793.305-1.252.438 5.812.15 8.041.196 8.643.312 3.688.08-3.436.31-5.906.563-5.906.254-.001.471-2.26.5-5.47.026-3.01.192-6.682.375-8.156.286-2.31.365-1.856.5 3.344.125 4.834.192 5.297.312 2.343.083-2.026.335-3.686.563-3.686s.451 2.074.53 4.594l.157 4.562.156-5.344.188-5.375.313 3.345c.174 1.843.37 8.483.438 14.75.11 10.285.166 10.936.5 6.5.53-7.023.677-7.675.844-3.375.128 3.276.17 3.49.375 1.563.235-2.208.263-2.187.53 1.125.17 2.084.327-1.295.438-8.938l.188-12.28.25 9.155.25 9.157.187-12.062c.153-9.356.239-10.534.344-5.25.08 4.03.305 6.812.562 6.812.239 0 .437-1.089.437-2.406 0-3.238.496-6.531.969-6.531.212 0 .375.606.375 1.343 0 2.373.883 1.431.938-1 .113-5.02.683-5.2 1.094-.343l.375 4.687.531-4.687c.493-4.5.497-4.124.657 9.375l.187 14.094.25-14.094.219-14.062.22 11.844c.174 10.632.2 11.229.437 5.812l.281-6.031.188 7.156.187 7.124.25-8.469.25-8.5.157 10.72c.134 8.657.23 10.003.5 6.937.183-2.09.393-6.334.468-9.406l.157-5.563.25 6.25c.144 3.44.292 5.03.343 3.531.157-4.63.655-9.594.938-9.312.148.147.396 5.314.53 11.5l.25 11.25.126-15.406c.143-18.178.813-22.395 1-6.25l.125 10.938.25-7.594c.106-3.134.255-5.224.344-5.5.018.034.05.155.063.375.113 1.977.213 2.211.5 1.312.197-.614.382-2.104.407-3.312.06-2.976.474-2.342.906 1.375l.343 3.062.156-3.343c.123-2.744.19-2.25.406 2.686.248 5.692.296 5.431.469-4.687.166-9.662.187-10.171.407-4.939.134 3.196.38 5.303.531 4.689.26-1.058.286-1.046.344-.095.033.553.223 1 .437 1s.573 1.053.78 2.344l.376 2.343.25-3.344.28-3.345.157 3.344c.148 3.04.195 3.128.344.999.09-1.292.33-2.345.562-2.345s.458-1.564.5-3.469l.093-3.469.281 2.688.313 2.687.062-2.562c.04-1.413.266-2.563.5-2.563s.503-1.053.593-2.343.243 3.562.344 10.812l.187 13.188.25-10.938.25-10.97.188 10.97c.098 5.592.156 8.203.219 8.53.048-.28.13-1.618.22-3.843l.25-6.25.25 4.687.218 4.688.157-6.25c.083-3.44.298-9.282.468-12.97.279-6.014.312-5.218.47 7.813.157 13.16.212 13.805.437 6.72l.25-7.812.218 5.344.22 5.375.155-6.032c.09-3.841.273-5.649.5-4.937.24.75.41-.414.5-3.563l.125-4.687.157 3.687c.082 2.028.326 3.688.562 3.688s.438-.607.438-1.344c0-.738.191-1.345.437-1.345s.469.607.469 1.344.172 1.343.407 1.343.51-1.468.594-3.25c.015-.29.047-.425.063-.47.084.37.207 3.135.282 7.282.139 7.67.23 9.003.406 5.594l.22-4.47.25 6.031.28 6.033.188-8.72.157-8.718.28 7.156.25 7.157.094-9.28c.059-5.822.25-9.25.53-9.25.278 0 .479 2.66.5 7.03.04 7.891.576 7.824 1.126-.125.253-3.663.43-4.51.656-3.343.263 1.353.293 1.224.344-1.002.032-1.413.24-2.562.468-2.562.23 0 .523-.574.625-1.25s.213 3.33.25 8.906c.04 6.203.226 10.268.5 10.438.289.179.468-1.82.468-5.656 0-6.387.724-7.633 1-1.719.086 1.843.245-.39.344-4.937l.156-8.25.25 6.03.25 6.032.375-4.125c.314-3.515.444-4.056.97-3.531.387.388.684 1.944.78 4.156.023.527.039.815.063.906.064-.147.162-1.72.219-4.562.154-7.73.769-7.73.937 0 .12 5.53.762 4.17.938-2l.125-4.25.312 6.03c.175 3.319.386 9.064.469 12.75.06 2.69.117 4.241.156 4.5.05-.425.128-2.93.25-7.874l.25-10.031.188 15.405.218 15.406.22-16.53.25-16.531.155 14.31.188 14.282.376-8c.2-4.4.45-8.2.562-8.469.106.16.253 2.202.313 4.875l.126 5.344.25-4.031c.126-1.911.215-2.888.281-3.093.054.063.127.582.219 1.531.131 1.352.316-1.745.406-6.906.125-7.12.254-8.525.469-5.813l.282 3.562.125-3.563c.166-4.407.762-2.77.969 2.687.056 1.48.09 2.248.125 2.406.028-.112.084-.55.126-1.312.237-4.292.656-7.124 1.031-7.124.2 0 .57 1.149.813 2.562l.437 2.563.063-3.687c.033-2.121.242-3.687.5-3.687.255 0 .483 1.584.53 3.687.036 1.536.058 2.335.095 2.5.032-.062.101-.505.156-1.375.09-1.413.343-2.562.563-2.562s.473-1.054.563-2.344.207 4.967.28 13.938l.126 16.312.625-5.344c.738-6.432.946-7.126 1.125-3.594.075 1.475.271-2.835.406-9.594l.25-12.28.156 13.155c.181 14.112.717 13.865.938-.437.063-4.084.118-5.931.187-6.063.051.166.145 1.08.25 2.594.358 5.231.874 6.252.874 1.687 0-1.803.16-3.122.344-2.938.184.183.457 4.386.594 9.343.087 3.147.14 5.038.188 5.406.06-.435.138-4.2.218-12.25l.157-15.876.312 9.531c.313 9.317.799 12.884.969 7.188.028-.95.062-1.51.094-1.656.05.1.151 1.037.28 3.03l.25 4.25.188-4.687.156-4.687.282 3.344c.27 3.162.31 3.013.468-2.47l.157-5.812.25 4.938c.247 4.907.242 4.891.688 2.437.392-2.154.479-1.41.688 6.032l.25 8.5.156-12.062c.15-12.134.702-14.32.969-3.813.105 4.118.168 4.764.282 2.375.085-1.782.358-3.25.594-3.25.235 0 .406.384.406.875s.204.906.437.906.503-1.053.593-2.344c.13-1.859.195-1.572.313 1.437l.156 3.812.312-2.688c.183-1.475.386-4.188.438-6.031l.093-3.343.594 2.687c.332 1.475.652 5.497.687 8.938.035 3.44.316 9.57.625 13.625l.562 7.375.125-12.97c.065-7.126.234-16.575.405-21 .26-6.703.347-4.536.5 12.97l.188 21 .25-18.781.219-18.75.187 16.532c.1 9.093.319 15.03.468 13.188.268-3.312.265-3.333.5-1.125.025.237.067.335.094.344.11-.256.243-2.212.312-5.251.07-3.073.196-5.049.281-5.157.013.056.02.182.032.343.32 4.577 1.01 2.3 1.094-3.593.08-5.676.107-5.766.376-2.125.154 2.089.329 3.173.375 2.375.046-.8.286-1.47.532-1.47.246 0 .46-1.053.5-2.343.049-1.608.126-1.902.25-.906.105.846.455 1.468.812 1.468.358 0 .677-.622.781-1.468.004-.03.028-.047.032-.063.093.408.223 4.517.28 10.001.067 6.268.245 12.59.407 14.063.28 2.545.317 2.41.625-2.469.178-2.826.358-7.231.405-9.812l.094-4.688.28 4c.153 2.212.335 3.521.406 2.907l.125-1.093.345 1.094c.267.834.4.334.5-2 .108-2.49.195-1.979.406 2.47.238 4.98.28 4.425.408-4.938.147-10.821.695-16.478.937-9.594l.125 3.563.313-2.437c.26-2.132.328-2.263.468-.906.018.161.04.247.064.25.1-.186.263-1.566.375-3.594.201-3.678.303-1.614.436 8.25.14 10.326.229 12.044.438 7.844l.281-5.375.188 4.469c.183 4.468.177 4.451.437-2.25l.25-6.687.188 7.594.187 7.594.25-9.812c.204-8.012.295-8.763.375-3.937.119 7.13.942 8.175 1.063 1.345l.062-4.563.313 3.344.28 3.344.063-2.594c.05-1.599.257-2.483.532-2.313.284.175.47-1 .47-3.187 0-1.899.092-3.345.218-3.219.126.126.383 1.711.594 3.531.376 3.242.412 3.278.469.907.128-5.377.5-1.26 1.156 12.28.379 7.85.755 14.57.843 14.939.088.368.258-7.165.343-16.75l.157-17.406.218 15.188c.134 8.356.331 13.272.44 10.938.08-1.744.138-2.763.187-2.907.06.285.15 1.93.28 5.157.223 5.52.276 4.429.438-7.375.19-13.793.185-13.83.438-5.377l.28 8.5.126-9.812c.153-10.222.806-11.13.968-1.343.044 2.704.23 6.311.406 8.031.3 2.926.325 2.756.437-2.468a217.5 217.5 0 0 1 .47-9.813l.313-4.25.156 4.688c.068 1.961.11 3.06.155 3.218.056-.275.152-1.98.281-5.437l.25-6.938.156 8.25.157 8.282.78-7.157.78-7.156.126 4.938c.144 4.811.165 4.827.312 1.218.11-2.678.322-3.687.75-3.687.356 0 .76-.927 1.032-2.344.373-1.94.465-.697.562 7.25.068 5.55.247 8.966.438 8.063.25-1.186.381-.613.468 2.437.109 3.792.13 3.927.532 2.031.234-1.106.57-5.638.75-10.062l.343-8.03.125 7.594c.178 9.96.833 7.182 1-4.25.091-6.197.144-7.018.25-3.25.08 2.842.35 5.031.594 5.031.238 0 .407-.415.407-.906s.222-.876.467-.876c.279 0 .47 3.153.532 8.375l.092 8.374.25-9.812.25-9.844.188 9.375c.08 3.936.182 6.009.25 6.25.03-.112.065-.61.093-1.532.08-2.57.342-4.8.563-4.936s.586-2.745.812-5.812l.407-5.594.156 4.937.157 4.906.25-6.03.281-6.03.188 4.686.187 4.688.25-5.812.25-5.813.094 5.718c.055 3.44.293 5.687.562 5.687.245 0 .463-1.053.5-2.343l.062-2.344.344 2.687c.183 1.475.396 4.188.468 6.031l.125 3.344.28-3.812.282-3.782.125 3.782.156 3.812.563-4.687c.478-4.143.546-4.42.656-2.25.16 3.151.385 1.943.844-4.47.3-4.189.386-2.11.5 11.189.101 11.833.24 14.972.469 11.406.172-2.704.367-5.832.437-6.938.042-.668.085-1.063.125-1.156.064.09.161.808.313 2.281.176 1.72.412 5.328.5 8.032.01.337.017.555.03.656.095-.48.242-5.11.345-12.062l.25-16.311.156 15.218.157 15.188.625-8.5c.707-10.071.97-12.281 1.531-12.281.23 0 .45-1.054.5-2.344s.23.37.375 3.688l.25 6.032.157-7.375c.119-5.33.25-6.683.468-4.907l.313 2.438.156-2.438.156-2.468.22 2.468.25 2.438.28-3.125c.097-1.1.168-1.765.22-1.905.065.16.13 1.452.218 4.156.175 5.359.183 5.35.437-2.687.235-7.395.255-6.812.438 7.157l.22 15.188.218-15.875.25-15.844.094 14.687c.057 8.09.203 14.64.313 14.53.51-.51 1.26-7.127 1.562-13.811l.344-7.375.157 7.376.156 7.375.282-8.5.25-8.5.156 9.407.157 9.375.5-6.938c.394-5.716.525-6.497.75-4.469l.25 2.47.187-2.47c.092-1.351.264.66.407 4.47.254 6.788.281 6.7.47-4.688l.187-11.625.25 9.406c.138 5.161.328 7.779.406 5.812.2-5.02.817-6.812.875-2.5.069 5.125.885 3.315 1.281-2.875l.343-5.375.25 3.594.25 3.563.125-3.344c.07-1.843.263-3.854.438-4.469.306-1.078.327-1.05.625.406.17.83.357 2.84.407 4.47.016.515.065.765.093.812.07-.2.182-1.487.282-3.688l.25-5.812.187 7.156.187 7.156.25-6.031c.25-5.72.269-5.82.437-2.22l.188 3.782.28-4.25c.22-3.383.307-2.2.438 5.813.114 6.943.238 9.097.438 6.937.2-2.165.363-.119.469 6.688l.125 9.843.343-14.656c.174-8.058.44-14.784.594-14.938.153-.154.321 3.826.374 8.844l.094 9.125.219-8.28.25-8.25.344 6.875c.185 3.787.367 8.607.407 10.72.047 2.503.252.588.594-5.532.354-6.33.566-8.292.657-6.031.161 4 .345 3.239.844-3.344l.376-4.938.125 3.594c.069 1.966.233 3.052.376 2.438.192-.83.356-.48.562 1.344.236 2.09.293 1.77.406-2.22.074-2.58.206-4.24.313-3.687s.396 1 .625 1 .436.67.469 1.468l.063 1.438.281-1.563c.165-.86.49 3.596.688 9.906.54 17.162 1.02 16.583 1.187-1.407l.155-15.875.25 12.75.25 12.72.188-11.626.187-11.594.25 10.031c.164 6.975.337 9.532.594 8.312.451-2.138 1.146-10.714 1.282-15.906l.093-3.782.28 4.907c.2 3.644.319 4.291.438 2.47.14-2.153.184-1.937.469 1.78.178 2.335.347 6.709.375 9.72.03 3.317.229 5.468.5 5.468.278 0 .5-3.153.562-8.375l.094-8.375.25 10.5c.175 7.425.296 9.07.406 5.594.085-2.704.298-8.545.469-12.97l.312-8.062.157 7.157.187 7.156.25-6.031c.177-4.076.324-5.156.437-3.344l.156 2.687.312-2.687c.12-1.078.2-1.702.25-1.813.053.17.095 1.166.156 3.157.193 6.168.758 12.976.845 10.156.063-2.024.198-2.344.97-2.344.806 0 .905-.289.905-3.063 0-1.688.128-3.763.313-4.593.32-1.44.343-1.41.593.938.047.436.119.7.157.781.093-.147.191-1.536.25-4.344.12-5.796.72-6.51.843-1 .072 3.159.861 2.997 1.063-.218.088-1.414.258 2.353.343 8.375.092 6.51.255 10.046.437 8.717.18-1.31.334 1.77.375 7.47l.094 9.718h.874c-.29 0-.407-5.374-.375-15.312.027-8.418.196-17.196.374-19.531.038-.502.06-.73.094-.656.147.318.244 5.96.28 15.969.048 12.784-.082 19.53-.374 19.53h.906l.094-12.187c.082-10.66.116-11.337.344-5.47l.25 6.72.187-7.375c.158-6.597.218-6.992.469-3.594l.281 3.811.156-3.811.157-3.782.282 2.906.311 2.906.126-2.25c.075-1.229.267-4.548.438-7.375l.312-5.125.156 4.25c.073 2.335.261 5.655.438 7.375l.312 3.125.125-4.469c.065-2.456.257-6.287.438-8.499l.344-4.03.061 3.469c.041 1.963.28 3.468.532 3.468.282 0 .438 3.08.438 8.344 0 4.587.16 8.183.344 8 .184-.184.425-4.483.562-9.563l.25-9.25.094 8.624c.054 5.38.252 8.594.531 8.594.282 0 .503-3.602.564-9.719l.093-9.72.25 8.25c.151 4.912.334 7.015.438 5.156l.156-3.125.282 3.126c.227 2.457.333 1.453.469-4.687l.188-7.814.25 6.907.25 6.937.188-9.625c.138-7.482.25-8.74.469-5.781.154 2.09.336 3.079.406 2.219.12-1.467.134-1.485.47-.438.197.615.403 5.02.469 9.813.107 7.959.143 8.331.436 4.25.176-2.458.396-6.288.469-8.5l.125-4 .281 3.344.314 3.343.156-3.78.156-3.813.281 3.812.281 3.781.157-5.812.187-5.813.281 4.938.25 4.906.094-4.812c.072-3.933.201-4.782.75-4.782.511 0 .705.603.75 2.563.058 2.516.042 2.48.406-.969.204-1.937.487-3.612.594-3.719s.31 1.998.469 4.656c.41 6.843.548 7.596.625 3.376.04-2.115.276-3.687.532-3.687.246-.001.434.669.437 1.468.004 1.102.108 1.29.437.78.287-.444.464 2.777.5 9.595.03 5.652.194 12.1.375 14.312.231 2.83.38-.835.5-12.312l.187-16.312.218 11.845.25 11.844.22-14.063.186-14.094.25 10.75c.137 5.898.334 9.41.438 7.812.158-2.424.233-2.007.438 2.47.236 5.175.256 4.973.687-5.595l.438-10.969.25 5.814c.14 3.34.32 4.788.406 3.375.142-2.315.16-2.38.47-.907.304 1.448.341 1.37.437-.907.082-1.95.185-2.23.469-1.343l.344 1.125.093-1.125.094-1.094.344 1.093c.285.886.387.638.47-1.313.095-2.277.132-2.355.437-.906l.313 1.562.062-1.53c.033-.84.222-1.373.406-1.188s.455 4.993.594 10.688l.25 10.344.188-15.406.187-15.406.219 15.406c.224 14.317.275 14.757.437 6.25.09-4.673.148-6.856.22-7.125.052.163.12 1.166.218 2.874.362 6.3 1.325 8.478 1.345 3.03.02-5.416.908-4.667 1.031.876.056 2.52.21-1.248.344-8.375l.25-12.938.156 9.375.156 9.375.563-4.906.53-4.906.157 10.938.156 10.938.25-9.375c.248-9.271.253-9.304.438-3.343l.187 6.03.282-5.155c.129-2.47.203-3.718.25-3.907.036.065.056.92.093 2.47.13 5.353.963 4.639 1.063-.907.063-3.44.142-3.97.313-2.125l.25 2.469.281-2.469.282-2.437.093 2.907c.053 1.597.265 3.704.468 4.687.277 1.34.42.172.531-4.687l.124-6.5.281 8.719.25 8.718.157-6.937c.087-3.81.237-6.46.343-5.906.424 2.197 1.032.822 1.032-2.343 0-2.681.12-3.344.656-3.344.549 0 .678.849.75 4.781l.094 4.813.25-4.906.25-4.937.343 3.813c.183 2.089.38 7.42.438 11.844.081 6.263.155 4.929.344-6.032l.25-14.094.156 14.094c.098 7.742.318 12.754.469 11.156.292-3.101.626-2.902 1.218.688.256 1.55.44-1.723.594-10.72.239-13.885.847-14.898.937-1.562l.031 7.813.594-4.25c.329-2.335.657-4.442.719-4.688.075.238.245 1.992.376 4.25l.28 4.688.188-6.031c.156-5.58.173-5.788.438-2.688l.281 3.344.125-2.906c.073-1.598.29-4.215.469-5.813l.344-2.907.094 2.469c.2 4.347.83 5.101.938 1.125.17-6.23.746-1.62.906 7.156l.156 8.031.25-6.937.281-6.906.188 10.5c.144 8.363.208 9.55.406 5.813.136-2.587.38-4.21.53-3.594.15.614.34-2.291.407-6.47.066-4.178.236-10.02.406-12.969.26-4.523.354-3.339.5 7.595.156 11.792.202 12.334.437 6.032.196-5.252.274-6.104.406-3.563l.188 3.344.281-3.344.281-3.344.188 2.438c.107 1.536.273.207.437-3.563.235-5.347.27-4.663.439 6.031l.186 12.062.25-9.812.25-9.844.22 14.062.187 14.094.25-17.438c.116-8.466.194-12.535.25-13.062.037.446.074 2.558.125 6.125.159 11.267.77 16.196 1 8.063l.125-4.688.25 4.688c.2 3.812.325 4.358.593 2.906.182-.983.341-3.128.344-4.75.003-1.622.118-4.531.281-6.47.296-3.482.32-3.507.876-1.968.31.856.575 2.52.594 3.688.024 1.507.212 2.125.656 2.125.841 0 1.585-2.303 1.657-5.094.055-2.15.095-2.194.406-.72.264 1.261.33.92.405-1.78.05-1.843.272-4.27.469-5.375.214-1.203.402 5.18.469 15.875s.254 17.047.468 15.844c.198-1.106.39-4.011.439-6.47.048-2.457.229-5.872.405-7.593l.313-3.125.187 3.78c.106 2.381.25.32.406-5.562l.251-9.406.157 7.843c.08 4.301.288 9.632.47 11.844l.312 4 .124-5.813c.107-6.264 1.071-12.58 1.469-9.594.12.898.261-.07.343-2.25.08-2.089.245-3.142.344-2.344.11.88.423 1.468.813 1.468.5 0 .654-.819.718-3.687.063-2.733.13-3.083.252-1.343.09 1.29.36 2.344.593 2.344.233 0 .455.67.5 1.47.046.798.221-.255.375-2.344.196-2.646.34-.153.47 8.25l.156 12.062.25-13.188.25-13.188.188 14.094c.159 11.555.259 12.948.468 7.812l.25-6.25.22 6.25c.216 6.046.242 5.942.374-3.344.18-12.623.771-16.876.97-6.937.084 4.261.232 6.152.374 4.687.233-2.41.239-2.38.5 1.344l.281 3.813.126-5.155c.09-3.288.251-4.563.438-3.563l.28 1.563.376-2c1.009-5.727 1.06-5.778 1.219-.907.13 4.084.183 3.657.405-3.343l.25-8.063.187 10.75c.159 9.158.215 9.95.438 5.563l.25-5.125.25 5.125.219 5.156.092-5.03c.053-2.765.27-5.032.5-5.032s.495.67.594 1.47c.1.798.257-1.277.344-4.595l.156-6.03.281 4.687c.15 2.58.327 4.24.375 3.687s.286-1 .532-1c.245 0 .47-1.15.5-2.562.043-2.115.094-2.354.375-1.25.29 1.149.38 1.012.467-1.094l.094-2.468.532 2.469c.493 2.207.578 2.298.782 1.095.12.345.224.635.343.968v-20.125c-.114 1.286-.23 2.532-.343 3.875-.007-.024-.024-.056-.032-.125-.144-1.351-.473-2.468-.719-2.468s-.574 1.117-.718 2.468l-.25 2.47-.157-2.47-.125-2.468-.312 2.468-.312 2.47-.062-2.345c-.04-1.29-.27-2.343-.5-2.343s-.495-.67-.594-1.47c-.099-.798-.237.766-.312 3.47-.072 2.574-.142 3.725-.22 3.812-.057-.1-.133-.657-.25-1.594-.182-1.474-.347-4.028-.374-5.687-.027-1.658-.239-3-.469-3s-.495-.67-.594-1.468c-.13-1.055-.239-.785-.344 1l-.126 2.469-.312-2.468c-.214-1.745-.357-.236-.469 5.156-.14 6.733-.17 7.127-.406 3.563l-.281-4.03-.22 3.593-.218 3.563-.156-4.688c-.074-2.58-.287-5.198-.469-5.812-.283-.956-.383-.76-.781 1.344-.41 2.163-.49 1.463-.625-5.813-.148-7.903-.173-7.702-.406 4.688l-.25 12.969-.093-10.281c-.058-5.653-.223-11.016-.375-11.938-.311-1.883-1.062-2.28-1.062-.563 0 .695-.24 1.094-.657 1.094-.574 0-.7 1.552-.78 10.844-.053 5.96-.14 8.673-.22 6.031-.08-2.692-.351-4.78-.593-4.78-.238 0-.438.48-.438 1.094 0 .614-.192 1.125-.437 1.125s-.483-1.15-.532-2.564c-.054-1.591-.207-.7-.375 2.344l-.25 4.906-.156-4.906c-.149-4.473-.199-4.69-.469-2.25l-.312 2.688-.124-3.563-.156-3.594-.313 2.47c-.234 1.91-.343 1.047-.469-3.812l-.156-6.25-.25 4.937-.28 4.906-.157-6.03c-.144-5.321-.23-4.45-.688 7.375l-.53 13.406-.095-13.874c-.056-7.619-.265-14.642-.468-15.625l-.375-1.78-.095 2.219c-.057 1.228-.25 2.855-.438 3.593-.306 1.205-.383 1.102-.5-.907l-.125-2.218-.28 2.906c-.271 2.686-.294 2.503-.438-2.25l-.156-5.125-.313 6.686a648.43 648.43 0 0 0-.469 14.97l-.156 8.28-.25-6.03c-.2-4.816-.305-5.516-.5-3.376l-.219 2.688-.092-3.47c-.047-1.904-.27-3.437-.5-3.437s-.495-.669-.594-1.467c-.1-.8-.244.67-.313 3.25-.067 2.58-.28 5.293-.468 6.03l-.343 1.345-.064-1.625c-.029-.888-.19-2.58-.375-3.782l-.343-2.186-.25 2.656c-.192 1.984-.288 1.216-.343-3-.046-3.45-.261-5.687-.532-5.687-.245 0-.437.383-.437.875s-.192.906-.438.906c-.274 0-.5 2.704-.562 7.03-.083 5.82-.14 5.015-.344-4.593l-.25-11.593-.187 10.72-.187 10.718-.25-9.844-.25-9.811-.188 7.374c-.163 6.615-.217 6.97-.468 3.562-.23-3.116-.308-2.278-.438 4.688l-.156 8.5-.375-7.375c-.208-4.056-.55-10.887-.75-15.19l-.374-7.812-.156 10.5-.156 10.5-.25-9.25c-.14-5.079-.41-9.378-.594-9.562-.184-.184-.383 3.86-.438 9l-.093 9.344-.251-10.281c-.138-5.654-.29-8.927-.345-7.283-.055 1.645-.286 3.13-.531 3.282-.256.157-.47 2.462-.47 5.405 0 5.927-.876 12.459-1.374 10.219l-.282-1.344-.062 1.25c-.033.77-.298 1.219-.719 1.219-.464-.001-.701.526-.75 1.686-.07 1.672-.175.795-1.031-7.593-.194-1.905-.54-3.47-.75-3.47s-.42-.446-.469-1c-.048-.552-.194 1.108-.344 3.688-.244 4.224-.296 3.872-.375-3.468-.054-5.08-.253-8.156-.53-8.156-.247 0-.466.64-.47 1.438-.005 1.102-.108 1.29-.437.78-.336-.52-.44-.353-.5.688-.052.913-.166.615-.374-.906l-.313-2.219-.156 1.782c-.118 1.418-.208 1.14-.437-1.345-.185-1.998-.334 1.156-.438 8.719-.104 7.61-.273 10.473-.437 8.03l-.25-3.78-.344 2.906c-.184 1.597-.39 3.8-.468 4.906-.078 1.106-.207-.203-.281-2.906-.133-4.85-.127-4.88-.562-2.344-.242 1.413-.592 2.562-.78 2.562s-.508-2.17-.72-4.812c-.337-4.214-.416-4.5-.593-2.344l-.22 2.47-.28-2.47c-.243-2.076-.319-1.683-.438 2.47-.073 2.553-.15 3.717-.219 3.843-.056-.151-.131-.79-.25-1.844a113.06 113.06 0 0 1-.469-5.812c-.104-2.082-.217-1.26-.407 2.907l-.25 5.812-.094-4.812c-.055-2.844-.267-4.782-.532-4.782-.245 0-.467-1.149-.5-2.562-.058-2.512-.073-2.512-.437.938-.525 4.991-.776 5.129-.905.5l-.094-4.03-.28 2.905c-.21 2.233-.336 2.593-.531 1.563-.141-.737-.303.794-.376 3.375-.126 4.45-.154 4.544-.47 2-.182-1.474-.419-5.208-.5-8.28-.129-4.933-.153-4.475-.374 3.812l-.25 9.375-.188-7.375-.187-7.375-.281 5.813-.25 5.812-.188-9.156-.188-9.156-.25 7.375-.28 7.375-.157-8.281c-.146-7.404-.2-7.871-.5-4.47-.182 2.09-.387 8.44-.468 14.094l-.156 10.25-.25-14.062-.219-14.062-.125 12.625c-.056 6.943-.255 12.625-.469 12.625-.445 0-.92-2.443-1.03-5.375-.063-1.65-.103-1.754-.25-.563-.146 1.167-.39 1.47-1.22 1.47-.897 0-1.071-.334-1.406-2.376-.37-2.26-.41-2.144-.656 2.375l-.25 4.689-.155-6.033a695.2 695.2 0 0 0-.438-12.75l-.312-6.687-.156 9.156c-.128 7.805-.186 8.58-.47 5.344-.183-2.09-.406-6.207-.469-9.156l-.093-5.344-.343 3.781c-.184 2.09-.392 6.623-.47 10.063l-.124 6.25-.281-7.812c-.251-7.645-.239-7.544-.408 5.126l-.187 12.969-.281-8.125c-.149-4.472-.385-8.292-.563-8.47-.176-.177-.364 2.902-.405 6.813l-.094 7.094-.249-5.437c-.301-6.124-.936-7.935-.936-2.688 0 3.985-.836 4.77-.938.875-.065-2.517-.14-2.32-.656 2.438-.503 4.65-1.094 2.303-1.094-4.407 0-3.727-.082-6.668-.218-6.53s-.431 3.733-.626 8l-.343 7.75-.126-7.157c-.07-3.931-.247-6.422-.407-5.561l-.312 1.561-.312-2.186c-.177-1.202-.345-3.021-.376-4.032l-.062-1.843-.344 2.03c-.196 1.106-.387 4.362-.405 7.25-.02 3.18-.198 5.25-.469 5.25-.246 0-.483-1.15-.53-2.563-.056-1.591-.209-.7-.376 2.344l-.25 4.907-.156-7.156c-.085-4.128-.264-6.465-.438-5.561-.23 1.194-.424.334-.78-3.595l-.47-5.125-.156 3.78-.156 3.813-.281-4.687-.25-4.688-.188 4.907-.156 4.906-.282-4.03c-.051-.738-.117-1.172-.156-1.313-.096.205-.197 2.6-.25 7.594-.174 16.243-.823 15.92-.97-.468-.103-11.653-.177-13.24-.437-8.687a705.165 705.165 0 0 1-.718 10.719c-.367 4.85-.38 4.968-.625 2.437l-.282-2.655-.062 2.562c-.102 3.488-.834 3.25-1.063-.343-.279-4.383-1.256-4.873-1.312-.657-.083 6.187-.742 1.461-.844-6.03-.06-4.355-.23-6.63-.438-5.813-.242.95-.395.04-.5-3.125-.12-3.599-.202-2.875-.407 3.78l-.25 8.281-.187-11.843c-.185-11.473-.187-11.648-.438-4.937l-.25 6.937-.093-7.187c-.052-3.96-.25-8.141-.407-9.282l-.28-2.062h-.313l-.094 14.844-.125 14.875-.219-12.53-.25-12.5-.345 9.811c-.521 14.868-.862 20.344-1.28 20.344-.21 0-.376-1.5-.376-3.343 0-5.202-.873-4.104-.97 1.218-.045 2.527-.16 3.545-.25 2.25-.09-1.29-.36-2.343-.593-2.343s-.436-1.085-.47-2.375c-.033-1.29-.143-1.866-.25-1.313-.355 1.845-1.04 1.032-1.124-1.344l-.094-2.343-.157 2.343c-.09 1.29-.343 2.344-.563 2.344s-.472-1.053-.562-2.344c-.131-1.871-.19-1.593-.313 1.438-.084 2.09-.244 3.142-.343 2.344-.1-.8-.346-1.438-.563-1.438-.218 0-.473-1.053-.563-2.344-.108-1.533-.22-.796-.313 2.125-.352 11.167-.773 11.04-.937-.25-.16-10.927-.189-11.115-.438-4.687-.197 5.061-.297 5.956-.438 3.594-.135-2.235-.254-1.108-.438 4l-.25 7.156-.219-7.156-.187-7.125-.25 9.593-.25 9.594-.157-12.062c-.09-6.768-.288-11.284-.467-10.28-.238 1.325-.383.466-.5-3.345l-.157-5.125-.218 7.375-.25 7.375-.438-8.28-.469-8.25-.217 16.75-.25 16.75-.188-13.626c-.14-9.926-.255-12.242-.437-8.5-.157 3.227-.337 4.576-.5 3.594-.176-1.058-.319-.35-.407 2.219-.1 2.967-.179 3.471-.436 2.249-.235-1.118-.368-.169-.469 3.343-.082 2.856-.217 3.925-.312 2.562-.118-1.674-.351-2.344-.813-2.344-.39.001-.675-.476-.719-1.217-.039-.676-.208-.133-.374 1.218l-.312 2.47-.094-2.03c-.054-1.107-.265-2.8-.469-3.782-.365-1.768-.354-1.76-.405.78-.028 1.414-.23 2.564-.437 2.564s-.501-3.673-.657-8.157c-.17-4.916-.472-8.22-.749-8.312-.25-.084-.467-.55-.467-1.063s-.141-.796-.313-.625c-.172.172-.44 5.396-.594 11.594l-.25 11.25-.156-12.5c-.146-14.487-.68-21.713-.906-12.063-.095 4.057-.218 5.123-.406 3.563-.228-1.892-.324-1.415-.657 3.125a478.11 478.11 0 0 0-.717 12.969c-.145 3.63-.227 5.363-.282 5.53-.031-.206-.065-1.166-.092-2.75-.068-3.934-.201-4.78-.75-4.78-.504 0-.68.58-.72 2.344-.044 2.005-.114 2.146-.405 1l-.344-1.344-.095 1.344-.093 1.343-.344-1.342c-.296-1.162-.354-1.006-.47 1.125-.11 2.076-.19 1.774-.468-1.813-.53-6.837-1.205-12.185-1.687-13.625-.355-1.06-.464-.164-.532 4.25-.046 3.072-.224 7.382-.405 9.594-.298 3.655-.325 3.31-.437-4.001-.146-9.477-.765-8.596-.938 1.343l-.125 6.687-.343-4.625c-.196-2.544-.446-4.727-.563-4.844-.118-.115-.342 1.167-.5 2.845-.502 5.28-.596 4.673-.75-6.094l-.126-10.499-.25 10.501c-.137 5.777-.32 8.395-.375 5.814-.28-12.956-.973-19.27-1.532-13.656-.102 1.016-.239.312-.281-1.656-.043-1.96-.247-3.47-.5-3.47-.287 0-.502 5.23-.563 14.626-.08 12.313-.128 13.423-.344 7.031-.194-5.76-.298-6.711-.437-4l-.188 3.562-.25-4.907-.28-4.906-.188 4.905-.157 4.907-.28-3.563-.282-3.595-.156 4.72-.188 4.687-.28-4.688-.25-4.719-.188 3.594-.188 3.562-.156-3.47c-.117-2.666-.28-3.437-.781-3.437-.483 0-.656-.59-.656-2.25 0-1.229-.191-2.218-.437-2.218-.276 0-.49 2.61-.531 6.812-.093 9.66-.675 4.291-.844-7.72-.087-6.183-.232-8.075-.406-5.812-.093 1.194-.161 1.935-.22 2.062-.084-.113-.168-1.625-.343-4.969-.18-3.44-.507-7.462-.719-8.936-.354-2.465-.395-2.216-.53 3.125-.14 5.463-.17 5.611-.407 2.249-.214-3.015-.312-2.252-.594 4.905-.183 4.67-.36 10.607-.406 13.188l-.094 4.688-.28-4.03-.282-4-.124 4.468c-.276 9.263-.79 10.273-.906 1.781-.066-4.82-.255-7.608-.47-6.938l-.374 1.125-.031-1.094c-.025-.594-.178-.947-.344-.781s-.55 3.794-.843 8.031l-.531 7.688-.156-5.812-.125-5.812-.282 4.718-.28 4.688-.188-4.688c-.18-4.643-.183-4.637-.438 2.438l-.25 7.156-.094-7.031c-.053-3.976-.265-7.031-.5-7.031-.228 0-.506.447-.593 1-.133.84-.919-7.715-1.407-15.312-.062.687-.152 4.396-.187 9.5-.046 6.771-.255 11.5-.5 11.5-.23 0-.491.543-.594 1.218s-.262-.856-.344-3.437l-.156-4.719-.28 3.594c-.246 3.102-.315 2.585-.47-3.813l-.156-7.375-.25 8.5c-.205 6.88-.292 7.615-.406 3.813-.095-3.155-.26-4.345-.5-3.594-.226.708-.393-1.09-.47-4.905l-.124-6.031-.312 5.812c-.177 3.195-.39 6.005-.47 6.25-.08.246-.264-2.786-.405-6.718-.26-7.143-.276-7.138-.47 4.468l-.188 11.625-.25-10.718-.25-10.719-.156 8.25c-.084 4.547-.281 8.888-.469 9.625l-.344 1.344-.125-1.344-.093-1.343-.344 1.343-.343 1.344-.125-1.344c-.086-.922-.23-.565-.437 1.125-.3 2.45-.303 2.422-.375-1.03-.076-3.582-.754-4.732-1.063-1.782-.096.923-.25-.13-.344-2.343-.146-3.469-.215-3.042-.437 3.125l-.25 7.156-.156-9.375c-.09-5.54-.306-8.767-.5-7.843-.233 1.106-.361.072-.47-3.563l-.155-5.125-.25 6.906-.282 6.938-.093-6.813c-.054-3.915-.258-6.812-.5-6.812-.233 0-.488.958-.563 2.126-.135 2.113-.14 2.09-.875-1.47l-.75-3.562-.062 3.344c-.064 2.406-.212 3.052-.47 2.25-.208-.652-.38 2.38-.405 7.313-.025 4.65-.195 8.306-.375 8.126s-.448-3.458-.594-7.313l-.25-7.03-.156 8.5c-.117 6.326-.222 7.705-.438 5.374-.252-2.728-.322-2.879-.437-1.125-.124 1.887-.149 1.914-.47.656-.292-1.151-.344-.986-.437 1.125-.085 1.941-.24 1.298-.718-3.094-.334-3.059-.688-5.772-.782-6.032-.003-.008-.028.004-.03 0-.113.246-.323 2.072-.5 4.438-.504 6.696-.967 4.418-1.157-5.813l-.124-8.03-.281 8.25-.25 8.28-.188-9.625c-.152-7.674-.219-8.694-.406-5.125-.082 1.583-.165 2.522-.218 2.72-.074-.207-.154-2.048-.28-6.064-.21-6.623-.283-5.344-.438 8.468-.116 10.272-.248 14.502-.407 11.406-.161-3.158-.365-4.348-.53-3.343-.232 1.395-.265 1.286-.407-.906-.123-1.897-.228-1.372-.438 2.25l-.28 4.688-.126-6.031a446.573 446.573 0 0 0-.469-11.843l-.312-5.813-.156 8.469-.126 8.5-.407-6.469c-.21-3.564-.544-8.384-.75-10.719-.336-3.824-.386-3.227-.53 6.031l-.157 10.281-.25-6.718-.281-6.69-.189 10.5-.186 10.5-.219-6.937-.25-6.937-.375 4.25c-.2 2.335-.483 5.463-.656 6.938l-.313 2.687-.342-1.812c-.178-.983-.31-2.611-.313-3.656-.003-1.044-.223-1.906-.469-1.906-.264 0-.475 1.94-.53 4.781-.087 4.388-.11 4.187-.345-2.343-.217-6.042-.31-6.554-.468-3.344-.065 1.33-.112 2.13-.156 2.312-.062-.221-.153-1.716-.28-4.78l-.25-6.25-.157 7.155c-.234 11.468-.734 10.75-1.095-1.562-.615-20.986-.988-22.464-1.187-4.688l-.188 16.094-.25-10.499-.25-10.499-.219 9.157c-.182 7.431-.229 5.89-.311-8.156l-.126-17.31h-.375l-.314 8.155c-.174 4.486-.377 8.242-.469 8.344s-.206-2.037-.25-4.72l-.093-4.875-.313 5.375c-.171 2.95-.476 9.78-.686 15.188-.21 5.407-.476 9.238-.594 8.5-.162-1.014-.291-.684-.5 1.344-.275 2.674-.269 2.672-.344-1.03-.044-2.181-.254-3.622-.5-3.47-.23.143-.497-.48-.594-1.406-.096-.927-.242.515-.312 3.219-.154 5.914-.734 4.51-.938-2.25l-.125-4.47-.28 3.595c-.103 1.295-.2 2.087-.25 2.28-.066-.132-.114-1.514-.188-4.53l-.126-5.813-.375 4.72c-.544 6.778-.72 7.355-.876 3.343l-.125-3.594-.314 2.469c-.266 2.168-.31 1.921-.438-2.219-.128-4.14-.171-4.418-.437-2.25-.255 2.093-.344 2.238-.468.906s-.18-1.218-.437.875l-.282 2.47-.093-2.438c-.111-3.686-.542-2.44-.938 2.717l-.343 4.625-.126-7.375c-.129-7.913-.712-7.34-.938.907l-.125 4.25-.28-3.813-.281-3.78-.158 5.344c-.17 5.236-.198 5.287-.343 1.468-.083-2.15-.337-3.906-.564-3.906s-.48-1.787-.562-3.937a3.636 3.636 0 0 0-.063-.626c-.065.37-.135 3.55-.186 8.344-.068 6.39-.32 12.008-.532 12.5-.226.527-.387-4.411-.406-12.094-.017-7.158-.159-13.67-.312-14.438-.323-1.615-1.029-1.853-1.094-.375-.043.965-.063.947-.406-.124-.231-.722-.413.862-.5 4.468l-.125 5.594-.251-5.593-.251-5.563-.376 8.938c-.212 4.915-.536 10.118-.72 11.593l-.343 2.688-.124-2.218c-.065-1.229-.25-2.856-.437-3.594-.296-1.156-.367-.995-.47 1.125-.07 1.42-.205 1.928-.313 1.22-.124-.823-.455-1.22-1-1.22-.64 0-.903-.537-1.25-2.562-.317-1.854-.458-2.173-.5-1.124-.031.799-.254 1.469-.5 1.469-.275 0-.437-2.256-.437-5.813 0-3.373-.208-5.87-.47-6.03-.245-.153-.464-1.223-.5-2.376l-.062-2.094-.406 2.438c-.226 1.351-.566 6.395-.75 11.188-.217 5.65-.376 7.442-.469 5.125-.078-1.967-.298-6.595-.468-10.281l-.313-6.688-.156 6.031-.188 6.032-.25-6.938c-.12-3.22-.205-4.896-.25-5.188-.032.144-.057 1.183-.093 3-.052 2.605-.262 6.339-.438 8.28-.266 2.935-.352 3.27-.594 1.97-.16-.86-.337 1.757-.406 5.812-.134 7.866-.234 7.89-.687.312-.328-5.477-1.094-6.48-1.094-1.437 0 3.65-.88 4.755-.97 1.218-.028-1.168-.2-2.732-.374-3.47-.278-1.17-.341-1-.625 1.345-.547 4.523-.593 4.583-.656.844-.09-5.368-.597-10.438-1.03-10.438-.21-.001-.423 1.659-.47 3.686l-.062 3.688-.28-3.813c-.126-1.689-.226-2.563-.282-2.749-.042.059-.079.52-.125 1.407-.101 1.97-.212 2.24-.5 1.344-.256-.8-.404-.097-.5 2.47l-.124 3.562-.281-4.906c-.255-4.64-.26-4.452-.407 3.563l-.156 8.499-.375-9.157c-.197-5.039-.523-10.88-.718-12.97-.308-3.278-.36-2.345-.564 6.72l-.25 10.5-.094-10.47c-.054-5.755-.249-10.345-.406-10.188-.157.158-.422 4.36-.594 9.344-.305 8.88-.295 8.943-.437 3.25-.116-4.627-.23-5.302-.47-3.345-.24 1.964-.316 1.299-.437-3.343l-.156-5.813-.344 6.25c-.194 3.44-.627 8.58-.968 11.405l-.625 5.125-.157-3.562-.125-3.594-.312 2.469c-.216 1.773-.331 2.092-.437 1.125s-.22-.65-.437 1.125c-.242 1.974-.34 1.292-.469-3.375l-.156-5.813-.28 4.719-.282 4.687-.156-6.03c-.148-5.1-.23-5.55-.437-2.906-.162 2.053-.312-.265-.47-6.719l-.25-9.812-.155 11.156c-.153 9.752-.226 10.54-.5 6.249a352.302 352.302 0 0 1-.47-10.282l-.155-5.344-.25 7.375-.25 7.374-.125-7.375c-.19-10.538-.937-7.43-1.375 5.811-.191 5.777-.4 9.384-.47 8.033-.108-2.125-.173-2.285-.468-1.125-.255 1.004-.352.46-.437-2.22-.063-1.965-.206-3.115-.313-2.562s-.396 1-.625 1-.44 2.14-.469 4.782c-.063 5.734-.692 4.287-.812-1.875-.156-8.032-.812-8.032-.968 0-.067 3.452-.119 5.211-.156 5.53-.03-.204-.074-1.278-.125-3.187-.13-4.829-.21-5.25-1-5.25-.726 0-.862.384-1 2.563-.143 2.3-.173 2.194-.25-.908-.046-1.904-.294-3.437-.53-3.437s-.48-1.787-.563-3.938c-.105-2.77-.215-1.755-.344 3.47-.11 4.51-.219 6.025-.312 3.906-.172-3.94-.909-4.617-1.155-1.094-.145 2.069-.146 1.964-.22-.845-.045-1.751-.252-3.858-.437-4.688-.285-1.285-.376-1.013-.593 1.844-.162 2.13-.262.03-.313-5.718-.05-5.68-.25-9.03-.531-9.03-.277 0-.475 3.076-.53 8.155-.085 7.779-.12 7.902-.375 3l-.25-5.125-.188 3.782-.156 3.812-.28-2.687-.313-2.69-.156 2.689c-.093 1.473-.297-1.048-.436-5.595l-.25-8.25-.157 11.375c-.228 17.132-.754 20.174-.937 5.375-.092-7.386-.251-10.867-.406-8.72l-.281 3.595-.375-4.375c-.211-2.397-.565-4.344-.782-4.344s-.424 5.587-.468 12.407c-.045 6.82-.158 11.417-.25 10.25-.138-1.747-.316-2.094-1.032-2.094-.786 0-.885-.353-.937-3.687l-.064-3.688-.343 3.125c-.204 1.72-.58 3.923-.813 4.906l-.406 1.78-.125-2.687-.126-2.656-.281 2.656c-.27 2.44-.32 2.254-.47-2.219l-.155-4.906-.282 4.906c-.126 2.31-.202 3.495-.25 3.688-.037-.045-.088-.827-.125-2.25-.068-2.742-.218-3.438-.748-3.438-.565 0-.675-1.164-.75-7.28l-.094-7.25-.282 5.124c-.227 4.352-.265 4.71-.406 2.25l-.187-2.906-.281 2.906c-.21 2.087-.33.506-.438-5.594-.147-8.31-.181-8.192-.5 5.281-.18 7.572-.407 13.876-.531 14-.124.125-.366-2.159-.531-5.062-.166-2.904-.344-5.479-.406-5.719-.063-.24-.553 1.675-1.063 4.25l-.906 4.688-.094-3.375a91.228 91.228 0 0 0-.437-6.25c-.266-2.36-.353-1.52-.47 4.468l-.155 7.375-.312-4.687c-.174-2.58-.366-5.9-.437-7.375-.118-2.444-.148-2.536-.374-.906-.2 1.433-.29 1.046-.5-2-.254-3.662-.27-3.565-.407 2.25-.095 4.023-.28 5.511-.5 4.468-.195-.925-.376 2.262-.47 7.813l-.156 9.375-.25-10.28c-.214-8.87-.268-9.482-.406-4.47-.177 6.438-.324 6.304-.75-.78-.312-5.195-.928-6.36-1.187-2.22-.088 1.413-.254-3.375-.343-10.625-.136-10.976-.212-12.277-.469-7.812-.17 2.95-.383 9.079-.469 13.626l-.157 8.28-.25-8.062c-.123-3.879-.195-5.842-.25-6.218-.042.197-.09 1.33-.156 3.312l-.188 5.156-.313-5.812c-.176-3.195-.347-8.59-.375-11.97l-.063-6.124h-.5z" inkscape:connector-curvature="0"/></g></clipPath><mask id="mask3949" maskUnits="userSpaceOnUse"><g id="g3951" inkscape:label="Layer 1" transform="matrix(1.5061 0 0 .96932 -361.99 -546.05)"><path id="path3953" style="stroke-linejoin: round; stroke: rgb(201, 255, 198); stroke-width: 24.045; fill: none;" d="M291.16 1193.5s19.69 11 26.35 17.84c10 10.27 19.05 52.98 25.7 40.28 40.2-76.76 58.12-273.25 58.12-273.25s.37 125.39 7.43 178.53c5.34 40.26 19.67 149.71 29.87 132.02 17.02-29.51 22.63-87.16 32.97-126.65 4.95-18.92 18.63 37.97 31.23 57.26 5.72 8.76 4.96-33.19 15.61-32.1 26.03 2.66 27.76.87 27.76.87" inkscape:export-ydpi="28.968977" sodipodi:nodetypes="csscsssssc" inkscape:export-filename="/home/janowicz/workspace/BreakTwoZero/docs/gfx/puls/puls_step11.png" inkscape:connector-curvature="0" inkscape:export-xdpi="28.968977"/></g></mask></defs><sodipodi:namedview id="base" bordercolor="#666666" inkscape:pageshadow="2" inkscape:window-y="450" pagecolor="#ffffff" inkscape:window-height="453" inkscape:window-maximized="0" inkscape:zoom="0.35" inkscape:window-x="63" showgrid="false" borderopacity="1.0" inkscape:current-layer="layer1" inkscape:cx="321.6985" inkscape:cy="235.81787" inkscape:window-width="1361" inkscape:pageopacity="0.0" inkscape:document-units="px"/><g id="layer1" inkscape:label="Layer 1" inkscape:groupmode="layer" transform="translate(0 -750.36)"><path id="path2985" sodipodi:rx="194.28572" sodipodi:ry="195.71428" style="fill: rgb(55, 200, 55);" sodipodi:type="arc" d="M462.86 553.79a194.29 195.71 0 1 1-388.57 0 194.29 195.71 0 1 1 388.57 0z" transform="matrix(.77206 0 0 .76642 -56.353 476.92)" sodipodi:cy="553.79077" sodipodi:cx="268.57144"/><path id="path3140" sodipodi:rx="194.28572" sodipodi:ry="195.71428" style="fill: rgb(175, 233, 175);" sodipodi:type="arc" d="M462.86 553.79a194.29 195.71 0 1 1-388.57 0 194.29 195.71 0 1 1 388.57 0z" clip-path="url(#clipPath3142)" transform="matrix(.77206 0 0 .76642 -56.353 476.92)" sodipodi:cy="553.79077" sodipodi:cx="268.57144"/><path id="path3941" sodipodi:rx="194.28572" sodipodi:ry="195.71428" style="fill: rgb(0, 85, 0);" sodipodi:type="arc" d="M462.86 553.79a194.29 195.71 0 1 1-388.57 0 194.29 195.71 0 1 1 388.57 0z" mask="url(#mask3949)" transform="matrix(.77206 0 0 .76642 -56.353 476.92)" sodipodi:cy="553.79077" sodipodi:cx="268.57144"/><path id="path2232" d="M193.79 997.18c8.493-2.647 17.763-6.24 20.884-8.094 2.097-1.246 2.392-1.666 1.667-2.369-5.256-5.091-42.234-37.49-42.56-37.289-.239.148-.842 2.457-1.342 5.132-.985 5.281-1.914 6.49-4.985 6.488-2.528 0-4.195-1.418-6.62-5.624-1.056-1.833-2.764-4.414-3.795-5.735-1.031-1.322-3.115-4.622-4.631-7.335-1.516-2.713-4.18-7.183-5.92-9.933-3.99-6.305-8.632-13.99-10.389-17.199-.743-1.358-2.577-4.127-4.076-6.152-1.498-2.024-3.409-5.024-4.246-6.666-.836-1.642-3.234-5.535-5.329-8.652-2.094-3.117-4.61-7.252-5.593-9.19-.981-1.937-2.784-5.087-4.005-7-2.81-4.399-6.08-10.936-6.645-13.281-.344-1.429-.054-2.159 1.404-3.531 1.966-1.852 2.095-1.851 8.352.034 2.116.637 3.985 1.022 4.153.854.301-.301-14.017-55.8-14.53-56.31-.374-.376-17.14 13.704-17.14 14.395 0 .313-1.458 2.021-3.242 3.796-1.783 1.774-4.314 4.927-5.624 7.006-2.067 3.277-2.481 4.651-3.12 10.335-2.03 18.038 2.727 44.702 11.757 65.894 4.861 11.408 7.781 17.128 11.233 21.998 1.561 2.202 3.661 5.654 4.668 7.67 5.406 10.837 22.444 30.592 34.334 39.81 8.204 6.362 25.615 17.739 29.639 19.369 11.769 4.766 14.87 4.957 25.7 1.582zm30.013-20.446c2.55-6.27 2.622-6.636 1.5-7.694-.947-.894-30.821-26.907-34.944-30.428-.965-.823-1.933-.519-7.926 2.489-5.75 2.886-6.682 3.568-5.904 4.318 2.845 2.74 44.24 38.254 44.402 38.093.106-.106 1.398-3.155 2.871-6.775zm-91.81-119.9c2.827-2.153 5.132-3.953 5.122-4-.767-3.574-11.94-47.268-12.136-47.466-.385-.384-14.645-2.384-14.935-2.095-.181.181 3.734 15.317 14.482 55.991.761 2.882.288 3.036 7.465-2.43z" sodipodi:nodetypes="csssssssssssssssssssssssssssssccsssssccssssc" style="fill: rgb(255, 255, 255);" inkscape:connector-curvature="0"/></g></svg>